<svg xmlns="http://www.w3.org/2000/svg" version="1.1" xmlnsxlink="http://www.w3.org/1999/xlink" xmlnssvgjs="http://svgjs.dev/svgjs" width="1500" height="1500" viewBox="0 0 1500 1500"><g transform="matrix(1,0,0,1,0,0.000007244477160384122)"><svg viewBox="0 0 280 280" data-background-color="#ffffff" preserveAspectRatio="xMidYMid meet" height="1500" width="1500" xmlns="http://www.w3.org/2000/svg" xmlnsxlink="http://www.w3.org/1999/xlink"><g id="tight-bounds" transform="matrix(1,0,0,1,0,-0.0000013523024051664834)"><svg viewBox="0 0 280 280" height="280" width="280"><g><svg viewBox="0 0 280 280" height="280" width="280"><g><svg viewBox="0 0 280 280" height="280" width="280"><g id="textblocktransform"><svg viewBox="0 0 280 280" height="280" width="280" id="textblock"><g><svg viewBox="0 0 280 280" height="280" width="280"><g transform="matrix(1,0,0,1,118.27890112802186,90.50252531694167)"><svg viewBox="0 0 43.44219774395628 98.99494936611666" height="98.99494936611666" width="43.44219774395628"><g id="icon-0"><svg xmlns="http://www.w3.org/2000/svg" xmlnsxlink="http://www.w3.org/1999/xlink" version="1.1" x="0" y="0" viewBox="30.42698392877789 5.400634831871577 39.14357737522634 89.19936516812844" enable-background="new 0 0 100 100" xml:space="preserve" height="98.99494936611666" width="43.44219774395628" class="icon-xg-0" data-fill-palette-color="accent" id="xg-0"></svg></g></svg></g><g id="text-0"><path d="M6.204 96.768l-0.119-2.998 5.619 1.876c-1.481-0.967-2.581-2.123-3.301-3.47-0.72-1.347-0.806-2.841-0.258-4.482v0c0.387-1.16 1.077-1.906 2.068-2.237 0.991-0.331 2.073-0.301 3.246 0.091v0l13.901 4.642c0.539 0.18 1.01 0.214 1.413 0.102 0.406-0.118 0.675-0.377 0.809-0.776v0c0.11-0.33 0.119-0.693 0.026-1.091-0.093-0.397-0.256-0.73-0.491-0.999v0l0.517-0.281c0.492 0.446 0.854 1.018 1.086 1.715 0.226 0.695 0.216 1.411-0.029 2.146v0c-0.296 0.887-0.839 1.499-1.627 1.834-0.791 0.342-1.763 0.32-2.917-0.064v0l-12.426-4.15c-1.078-0.36-2.015-0.539-2.812-0.537-0.797 0.002-1.34 0.437-1.63 1.305v0c-0.368 1.103-0.129 2.201 0.718 3.294 0.845 1.099 1.944 2.069 3.298 2.908 1.348 0.838 2.554 1.434 3.619 1.79v0l9.641 3.219 0.186 3.021z" fill="#2669b1" data-fill-palette-color="primary"></path><path d="M21.817 73.375l0.818-0.189c0.172 1.801 0.593 3.366 1.263 4.694 0.664 1.325 1.722 2.36 3.173 3.105v0c0.814 0.418 1.723 0.667 2.727 0.746 0.997 0.076 1.947-0.09 2.847-0.499 0.892-0.406 1.585-1.091 2.08-2.054v0c0.4-0.779 0.574-1.565 0.522-2.357-0.051-0.793-0.298-1.512-0.739-2.159-0.447-0.65-1.043-1.166-1.786-1.548v0c-0.85-0.436-1.849-0.626-2.997-0.57-1.151 0.063-2.25 0.351-3.296 0.866-1.046 0.515-1.828 1.191-2.348 2.029v0c-0.176-0.549-0.333-1.181-0.468-1.897-0.139-0.71-0.264-1.424-0.377-2.143v0c1.057-1.035 2.357-1.614 3.901-1.738 1.538-0.127 3.023 0.177 4.456 0.912v0c1.266 0.65 2.352 1.534 3.258 2.653 0.9 1.115 1.46 2.357 1.682 3.726 0.224 1.377-0.011 2.744-0.707 4.099v0c-0.558 1.088-1.34 1.952-2.346 2.593-1.002 0.635-2.1 0.98-3.292 1.036-1.196 0.047-2.356-0.218-3.48-0.794v0c-1.968-1.01-3.378-2.47-4.23-4.38-0.849-1.916-1.07-3.959-0.661-6.131z" fill="#2669b1" data-fill-palette-color="primary"></path><path d="M36.058 51.433l10.495 7.724c0.248 0.182 0.495 0.269 0.742 0.26 0.247-0.009 0.454-0.126 0.621-0.353v0c0.254-0.344 0.242-1-0.034-1.966v0l0.63-0.096c0.489 0.891 0.708 1.687 0.658 2.388-0.055 0.706-0.083 1.059-0.083 1.059 0 0-0.156 0.213-0.469 0.638v0c-0.388 0.527-0.829 0.817-1.324 0.868-0.489 0.055-1.159-0.139-2.01-0.583-0.847-0.449-2.025-1.229-3.532-2.338v0c-0.899-0.661-1.614-1.2-2.145-1.617v0l-0.636-0.168-0.059 0.08c1.705 1.911 3.151 3.887 4.336 5.93 1.187 2.052 1.261 3.783 0.223 5.192v0c-0.384 0.522-0.795 0.804-1.233 0.847-0.442 0.048-0.907-0.07-1.395-0.354-0.482-0.28-1.192-0.765-2.128-1.454v0l-6.935-5.104c-0.28-0.206-0.546-0.306-0.798-0.302-0.258 0.001-0.464 0.106-0.619 0.317v0c-0.289 0.393-0.288 1.079 0.005 2.057v0l-0.602 0.005c-0.43-0.723-0.649-1.395-0.658-2.015-0.01-0.629 0.077-1.147 0.259-1.552 0.191-0.407 0.311-0.592 0.36-0.557v0c-0.012 0.016-0.027 0.042-0.046 0.079-0.013 0.04-0.045 0.095-0.096 0.165v0c1.038-1.41 2.367-1.519 3.986-0.326v0l7.089 5.216c0.361 0.265 0.646 0.413 0.856 0.444 0.219 0.029 0.371-0.013 0.454-0.127v0c0.519-0.705 0.316-1.867-0.609-3.485-0.934-1.617-2.088-3.229-3.46-4.836-1.371-1.598-2.221-2.518-2.549-2.76v0z" fill="#2669b1" data-fill-palette-color="primary"></path><path d="M48.889 43.4c0.046 1.323 0.388 2.757 1.028 4.304 0.639 1.546 1.411 2.76 2.316 3.642v0c0.785 0.765 1.609 1.236 2.471 1.413 0.867 0.173 1.669-0.119 2.406-0.875v0c0.597-0.613 1.008-1.355 1.232-2.227 0.225-0.872 0.277-1.755 0.157-2.647v0l-0.568-0.077c-0.132 0.748-0.412 1.343-0.841 1.783v0c-0.667 0.684-1.41 0.968-2.229 0.851-0.824-0.122-1.578-0.516-2.263-1.182v0c-1.111-1.082-1.884-2.39-2.32-3.925-0.436-1.535-0.696-3.193-0.78-4.973v0l-0.638 0.05c-0.356 1.649-0.945 2.895-1.766 3.738v0c-0.485 0.498-1.148 0.733-1.989 0.706-0.842-0.027-1.64-0.194-2.396-0.5v0l0.261 3.711c0.395 0.179 1.003 0.23 1.824 0.154v0l1.632 4.444 1.164-0.448-1.746-4.471c0.338-0.146 0.604-0.284 0.796-0.414 0.183-0.13 0.409-0.334 0.679-0.612v0c0.699-0.718 1.178-1.53 1.436-2.436v0z" fill="#2669b1" data-fill-palette-color="primary"></path><path d="M49.452 24.097l3.788 6.113-0.543 0.928-5.041-4.052zM56.065 32.014l8.093 9.631c0.198 0.235 0.418 0.378 0.66 0.427 0.242 0.05 0.474-0.018 0.693-0.203v0c0.169-0.142 0.292-0.38 0.368-0.715 0.081-0.33 0.107-0.735 0.078-1.217v0l0.672 0.037c0.205 0.971 0.17 1.808-0.104 2.51-0.27 0.707-0.617 1.239-1.042 1.595v0c-0.558 0.469-1.14 0.653-1.748 0.553-0.603-0.104-1.263-0.584-1.981-1.438v0l-7.152-8.511z" fill="#2669b1" data-fill-palette-color="primary"></path><path d="M65.05 23.767c0.568-0.388 1.055-0.571 1.459-0.548 0.395 0.021 0.738 0.245 1.028 0.67v0c0.309 0.452 0.496 0.916 0.561 1.389 0.065 0.474 0.08 0.905 0.045 1.293-0.025 0.39-0.037 0.657-0.036 0.801v0c0.429 0.201 1.078 0.34 1.949 0.417v0c0.716 0.077 1.311 0.172 1.785 0.286 0.472 0.123 0.98 0.374 1.524 0.755 0.544 0.381 1.068 0.942 1.573 1.681v0c0.596 0.872 0.944 1.803 1.046 2.794 0.096 0.994-0.06 1.939-0.468 2.833-0.411 0.904-1.052 1.653-1.924 2.249v0c-0.535 0.366-1.202 0.651-2 0.856-0.795 0.211-1.487 0.21-2.077-0.001v0l0.156-3.397c0.766 0.245 1.497 0.402 2.191 0.47 0.7 0.064 1.309-0.081 1.827-0.434v0c0.723-0.494 1.177-1.156 1.362-1.987 0.185-0.831 0.048-1.583-0.412-2.256v0c-0.366-0.535-0.953-0.915-1.761-1.139-0.803-0.228-1.857-0.427-3.163-0.596v0c-0.156-0.015-0.468-0.057-0.935-0.126-0.459-0.067-0.813-0.136-1.065-0.207v0l0.007 3.795-1.165 0.019 0.1-4.172c-0.677-0.493-1.233-1.059-1.67-1.699v0c-0.494-0.723-0.745-1.434-0.753-2.133-0.013-0.695 0.259-1.233 0.816-1.613zM65.723 24.752c-0.221 0.151-0.319 0.303-0.295 0.456 0.022 0.163 0.113 0.36 0.271 0.592v0c0.207 0.303 0.428 0.537 0.661 0.702 0.23 0.159 0.394 0.269 0.493 0.331v0c0.099-0.246 0.123-0.578 0.072-0.997-0.051-0.418-0.152-0.738-0.303-0.958v0c-0.102-0.149-0.232-0.238-0.389-0.268-0.158-0.03-0.328 0.018-0.51 0.142z" fill="#2669b1" data-fill-palette-color="primary"></path><path d="M71.821 6.266l9.901 19.312 0.107-0.055c-0.325-1.088-0.577-2.37-0.756-3.848-0.17-1.475-0.108-2.885 0.186-4.229 0.297-1.339 0.972-2.278 2.025-2.818v0c0.559-0.287 1.073-0.295 1.541-0.025 0.472 0.276 0.861 0.655 1.169 1.136 0.307 0.481 0.675 1.141 1.105 1.979v0l3.869 7.546c0.113 0.22 0.285 0.395 0.516 0.524 0.24 0.132 0.506 0.123 0.798-0.026v0c0.47-0.241 0.767-0.84 0.892-1.798v0l0.54 0.242c0.049 0.726-0.096 1.439-0.436 2.138-0.34 0.7-0.789 1.193-1.347 1.48v0c-1.409 0.723-2.582 0.171-3.518-1.655v0l-3.691-7.198c-0.122-0.238-0.285-0.432-0.49-0.583-0.202-0.144-0.421-0.156-0.66-0.033v0c-0.922 0.473-1.35 1.601-1.283 3.384 0.072 1.781 0.37 3.629 0.894 5.545 0.525 1.916 0.944 3.181 1.258 3.794v0l-2.052 1.953-12.535-24.45z" fill="#2669b1" data-fill-palette-color="primary"></path><path d="M92.662 0l1.491 7.035-0.825 0.689-3.369-5.521zM96.199 9.689l4.349 11.805c0.106 0.288 0.265 0.497 0.476 0.626 0.211 0.129 0.452 0.143 0.721 0.044v0c0.207-0.076 0.403-0.259 0.589-0.548 0.188-0.283 0.35-0.656 0.485-1.119v0l0.62 0.263c-0.136 0.983-0.453 1.758-0.948 2.326-0.494 0.574-1.001 0.956-1.522 1.148v0c-0.684 0.252-1.294 0.227-1.832-0.073-0.532-0.303-0.99-0.978-1.376-2.025v0l-3.843-10.431z" fill="#2669b1" data-fill-palette-color="primary"></path><path d="M115.066 4.465c0.795-0.179 1.376-0.001 1.743 0.533 0.373 0.533 0.675 1.314 0.907 2.345v0l0.206 0.919 1.895 8.43c0.05 0.222 0.169 0.431 0.357 0.629 0.188 0.197 0.413 0.267 0.673 0.208v0c0.339-0.076 0.601-0.251 0.786-0.526 0.193-0.269 0.369-0.6 0.527-0.991v0l0.551 0.348c-0.158 0.7-0.481 1.351-0.968 1.954-0.489 0.596-1.005 0.955-1.546 1.077v0c-0.795 0.179-1.467 0.069-2.016-0.328-0.548-0.397-0.936-1.101-1.162-2.112v0l-1.774-7.892c-0.067-0.3-0.153-0.544-0.257-0.734-0.103-0.182-0.271-0.247-0.506-0.194v0c-0.815 0.183-1.473 1.156-1.974 2.919-0.503 1.757-0.839 3.671-1.011 5.745-0.171 2.073-0.188 3.416-0.05 4.028v0l-2.416 1.365-2.866-12.753c-0.062-0.274-0.193-0.508-0.394-0.703-0.203-0.201-0.441-0.271-0.715-0.209v0c-0.476 0.107-0.898 0.65-1.267 1.63v0l-0.546-0.37c0.093-0.774 0.385-1.473 0.875-2.097 0.485-0.616 1.024-0.99 1.617-1.124v0c0.835-0.188 1.502-0.129 2.002 0.177 0.494 0.307 0.818 0.806 0.974 1.497v0l1.76 7.834 0.118-0.027c0.144-1.889 0.317-3.544 0.517-4.965 0.201-1.422 0.618-2.813 1.251-4.175 0.632-1.361 1.536-2.174 2.709-2.438z" fill="#2669b1" data-fill-palette-color="primary"></path><path d="M132.686 2.098c0.973-0.075 1.926 0.119 2.86 0.583 0.935 0.471 1.67 1.144 2.208 2.021v0l-2.097 1.359c-0.362-0.689-0.841-1.215-1.439-1.578-0.598-0.363-1.243-0.517-1.936-0.463v0c-1.013 0.078-1.872 0.493-2.578 1.245-0.706 0.752-1.23 1.65-1.571 2.695-0.335 1.045-0.467 2.023-0.396 2.936v0c0.11 1.419 0.507 2.655 1.191 3.709 0.678 1.047 1.676 1.519 2.996 1.417v0c1.506-0.117 2.49-0.87 2.951-2.26 0.462-1.396 0.632-2.874 0.512-4.433v0l-0.106-1.369 2.651-1.341 0.721 9.314c0.118 1.519-0.114 3.119-0.695 4.799-0.587 1.681-1.462 3.106-2.625 4.275-1.163 1.169-2.527 1.814-4.093 1.936v0c-1.113 0.086-2.025-0.229-2.737-0.945v0l2.418-2.399c0.168 0.356 0.431 0.634 0.789 0.834 0.35 0.194 0.778 0.272 1.284 0.233v0c1.519-0.118 2.465-0.757 2.838-1.919 0.366-1.161 0.483-2.594 0.351-4.3v0l-0.282-2.482c-0.058-0.753-0.032-1.368 0.078-1.846v0l-0.22 0.017c-0.655 1.237-1.306 2.216-1.955 2.937-0.654 0.728-1.468 1.129-2.44 1.204v0c-1.746 0.135-3.129-0.338-4.151-1.418-1.021-1.074-1.6-2.494-1.737-4.26v0c-0.133-1.719 0.092-3.362 0.674-4.928 0.583-1.567 1.454-2.861 2.615-3.882 1.155-1.014 2.462-1.578 3.921-1.691z" fill="#2669b1" data-fill-palette-color="primary"></path><path d="M166.574 4.385l-1.997 13.901c-0.272 1.892-0.903 3.61-1.895 5.156-0.991 1.539-2.182 2.714-3.575 3.527-1.392 0.806-2.792 1.108-4.201 0.905v0c-0.542-0.078-1.046-0.235-1.513-0.47-0.46-0.228-0.924-0.572-1.391-1.031v0l2.5-2.385c0.363 0.484 0.813 0.9 1.35 1.247 0.538 0.341 1.059 0.547 1.562 0.619v0c0.622 0.089 1.241-0.2 1.856-0.867 0.61-0.675 1.155-1.647 1.634-2.915 0.479-1.268 0.838-2.729 1.075-4.382v0c0.538-3.744 0.894-6.15 1.067-7.219v0l0.26-1.806-0.179-0.026c-2.73 7.257-5.415 10.696-8.054 10.317v0c-0.582-0.084-0.999-0.262-1.25-0.534-0.244-0.278-0.375-0.726-0.395-1.343-0.013-0.616 0.069-1.539 0.246-2.77v0l1.225-8.523c0.047-0.324 0.006-0.607-0.121-0.848-0.133-0.249-0.319-0.39-0.557-0.424v0c-0.503-0.072-1.098 0.264-1.786 1.009v0l-0.408-0.544c0.58-0.889 1.109-1.471 1.588-1.747 0.486-0.281 1.142-0.362 1.969-0.244v0c0.8 0.115 1.365 0.459 1.695 1.034 0.33 0.567 0.425 1.344 0.283 2.329v0l-1.186 8.255c-0.107 0.747 0.051 1.152 0.474 1.213v0c0.503 0.072 1.246-0.523 2.231-1.786 0.984-1.256 1.906-2.741 2.767-4.454 0.868-1.718 1.383-3.14 1.544-4.264v0z" fill="#2669b1" data-fill-palette-color="primary"></path><path d="M180.107 8.237l0.332 0.771c-1.741 0.492-3.205 1.187-4.391 2.085-1.185 0.891-2.013 2.117-2.486 3.677v0c-0.265 0.876-0.347 1.815-0.245 2.817 0.104 0.995 0.437 1.899 1.001 2.712 0.559 0.805 1.357 1.364 2.393 1.678v0c0.838 0.254 1.642 0.284 2.413 0.091 0.771-0.193 1.435-0.564 1.992-1.114 0.56-0.557 0.96-1.235 1.203-2.035v0c0.277-0.915 0.285-1.932 0.023-3.051-0.268-1.121-0.749-2.15-1.443-3.086-0.694-0.936-1.5-1.585-2.417-1.947v0c0.508-0.272 1.102-0.539 1.783-0.801 0.673-0.264 1.353-0.515 2.04-0.754v0c1.208 0.854 2.011 2.03 2.409 3.526 0.401 1.49 0.368 3.006-0.099 4.547v0c-0.412 1.362-1.088 2.589-2.025 3.68-0.936 1.085-2.057 1.859-3.364 2.323-1.315 0.468-2.701 0.481-4.159 0.039v0c-1.17-0.354-2.161-0.969-2.972-1.842-0.804-0.872-1.341-1.89-1.61-3.054-0.261-1.168-0.208-2.357 0.158-3.565v0c0.641-2.117 1.825-3.766 3.551-4.947 1.733-1.179 3.704-1.762 5.913-1.75z" fill="#2669b1" data-fill-palette-color="primary"></path><path d="M204.246 18.321l-5.721 11.708c-0.135 0.276-0.176 0.535-0.123 0.776 0.053 0.242 0.206 0.424 0.458 0.548v0c0.384 0.188 1.027 0.059 1.928-0.386v0l0.208 0.604c-0.789 0.641-1.533 0.999-2.232 1.074-0.705 0.072-1.057 0.108-1.057 0.108 0 0-0.237-0.116-0.712-0.348v0c-0.588-0.288-0.952-0.67-1.09-1.147-0.142-0.471-0.07-1.165 0.214-2.082 0.291-0.914 0.847-2.212 1.668-3.893v0c0.49-1.003 0.892-1.803 1.206-2.4v0l0.053-0.655-0.09-0.044c-1.575 2.02-3.261 3.795-5.058 5.327-1.806 1.535-3.496 1.918-5.069 1.149v0c-0.582-0.285-0.934-0.639-1.054-1.062-0.126-0.426-0.093-0.905 0.099-1.436 0.189-0.525 0.54-1.309 1.05-2.354v0l3.781-7.736c0.153-0.312 0.204-0.592 0.153-0.84-0.047-0.254-0.188-0.438-0.422-0.552v0c-0.438-0.214-1.113-0.09-2.023 0.373v0l-0.113-0.591c0.635-0.553 1.256-0.889 1.865-1.008 0.618-0.122 1.142-0.13 1.574-0.023 0.434 0.116 0.638 0.2 0.612 0.254v0c-0.018-0.009-0.046-0.019-0.086-0.03-0.042-0.006-0.102-0.027-0.18-0.066v0c1.573 0.769 1.918 2.057 1.035 3.864v0l-3.864 7.908c-0.197 0.402-0.291 0.709-0.283 0.921 0.011 0.221 0.08 0.362 0.205 0.424v0c0.787 0.384 1.893-0.023 3.32-1.222 1.424-1.208 2.803-2.632 4.14-4.27 1.327-1.635 2.08-2.636 2.259-3.002v0z" fill="#2669b1" data-fill-palette-color="primary"></path><path d="M226.592 23.697l-4.911 6.466 3.377 2.564-1.909 1.005-2.65-2.013-6.5 8.557c-0.186 0.245-0.266 0.499-0.239 0.763 0.032 0.268 0.167 0.492 0.407 0.674v0c0.341 0.259 1.052 0.3 2.134 0.123v0l0.064 0.628c-0.773 0.378-1.491 0.554-2.152 0.53-0.657-0.029-1.203-0.15-1.638-0.363-0.436-0.222-0.629-0.365-0.581-0.428v0c0.016 0.012 0.042 0.028 0.078 0.046 0.04 0.014 0.095 0.047 0.164 0.1v0c-1.426-1.083-1.519-2.442-0.278-4.076v0l6.282-8.27-1.828-1.388 1.94-0.981 1.07 0.813 4.244-5.588z" fill="#2669b1" data-fill-palette-color="primary"></path><path d="M233.697 40.442l-0.055 0.837c-1.774-0.354-3.394-0.401-4.859-0.141-1.46 0.255-2.756 0.969-3.887 2.144v0c-0.635 0.66-1.135 1.458-1.5 2.396-0.36 0.933-0.475 1.89-0.342 2.87 0.132 0.971 0.588 1.832 1.367 2.583v0c0.631 0.607 1.333 1 2.107 1.18 0.774 0.179 1.534 0.15 2.281-0.086 0.752-0.241 1.417-0.663 1.997-1.265v0c0.663-0.688 1.132-1.591 1.409-2.706 0.272-1.121 0.312-2.256 0.119-3.405-0.192-1.15-0.614-2.094-1.266-2.833v0c0.576-0.011 1.227 0.022 1.952 0.098 0.72 0.071 1.44 0.157 2.16 0.256v0c0.687 1.31 0.867 2.722 0.541 4.236-0.321 1.509-1.04 2.844-2.157 4.004v0c-0.987 1.025-2.147 1.811-3.479 2.356-1.327 0.54-2.678 0.72-4.052 0.538-1.383-0.182-2.624-0.801-3.722-1.858v0c-0.881-0.848-1.484-1.846-1.808-2.992-0.319-1.142-0.334-2.293-0.044-3.452 0.299-1.159 0.887-2.193 1.763-3.103v0c1.534-1.594 3.338-2.523 5.413-2.79 2.079-0.262 4.1 0.116 6.062 1.133z" fill="#2669b1" data-fill-palette-color="primary"></path><path d="M260.471 52.582l-20.316 15.396c-0.229 0.174-0.398 0.382-0.508 0.624-0.106 0.248-0.072 0.486 0.101 0.715v0c0.174 0.229 0.446 0.379 0.819 0.449 0.381 0.072 0.734 0.073 1.058 0.003v0l-0.04 0.76c-0.746 0.155-1.493 0.138-2.24-0.051-0.737-0.187-1.28-0.51-1.627-0.969v0c-0.565-0.746-0.766-1.448-0.604-2.108 0.162-0.66 0.769-1.375 1.82-2.146v0l-0.072-0.096c-2.748 0.523-4.663 0.071-5.745-1.356v0c-1.07-1.411-1.396-2.866-0.98-4.364 0.407-1.499 1.348-2.807 2.823-3.925v0c1.166-0.884 2.519-1.511 4.059-1.881 1.53-0.371 3.021-0.373 4.472-0.006 1.452 0.367 2.64 1.16 3.565 2.38v0c0.577 0.762 0.885 1.572 0.924 2.431v0l9.827-7.447zM245.503 56.945c-0.686-0.905-1.536-1.44-2.548-1.604-1.018-0.159-2.034-0.073-3.048 0.26-1.009 0.328-1.862 0.757-2.56 1.286v0c-0.554 0.42-1.089 0.98-1.606 1.682-0.52 0.696-0.852 1.442-0.995 2.238-0.144 0.805 0.04 1.546 0.552 2.223v0c0.936 1.236 2.104 1.676 3.503 1.32 1.4-0.365 2.739-1.032 4.018-2.001v0l3.34-2.531c0.082-0.49 0.074-0.987-0.024-1.491-0.099-0.495-0.309-0.956-0.632-1.382z" fill="#2669b1" data-fill-palette-color="primary"></path><path d="M258.209 74.119c0.471 0.877 0.728 1.809 0.771 2.794 0.04 0.98-0.229 1.856-0.807 2.629v0l-2.089-1.37c0.257-0.51 0.417-1.103 0.477-1.781 0.067-0.681-0.054-1.309-0.364-1.886v0c-0.49-0.913-1.157-1.583-2-2.01-0.84-0.421-1.76-0.595-2.76-0.521-0.999 0.074-1.991 0.375-2.974 0.902v0c-1.419 0.762-2.444 1.622-3.073 2.583-0.624 0.957-0.656 1.956-0.097 2.999v0c0.79 1.472 1.925 2.167 3.406 2.085 1.481-0.082 2.919-0.497 4.314-1.246v0l1.21-0.65 2.268 1.832-7.074 3.797c-0.236 0.126-0.425 0.311-0.567 0.555-0.151 0.241-0.159 0.487-0.024 0.74v0c0.278 0.518 0.892 0.799 1.841 0.844v0l-0.215 0.638c-0.723 0.108-1.441 0.007-2.152-0.301-0.709-0.317-1.207-0.744-1.495-1.279v0c-0.414-0.771-0.433-1.493-0.058-2.165 0.378-0.681 1.041-1.275 1.989-1.784v0l-0.029-0.053c-1.188 0.061-2.304-0.117-3.347-0.535-1.053-0.421-1.805-1.052-2.257-1.895v0c-0.819-1.525-0.909-2.959-0.273-4.302 0.628-1.346 1.819-2.489 3.574-3.431v0c1.401-0.752 2.884-1.142 4.447-1.169 1.566-0.036 3.009 0.293 4.329 0.987 1.318 0.688 2.327 1.686 3.029 2.993z" fill="#2669b1" data-fill-palette-color="primary"></path><path d="M268.464 97.739l-13.22 4.738c-1.799 0.645-3.614 0.891-5.443 0.737-1.823-0.156-3.42-0.659-4.79-1.509-1.363-0.853-2.285-1.949-2.765-3.29v0c-0.185-0.516-0.282-1.035-0.292-1.556-0.014-0.513 0.073-1.084 0.26-1.712v0l3.277 1.093c-0.258 0.547-0.415 1.139-0.471 1.777-0.049 0.635 0.012 1.192 0.184 1.67v0c0.212 0.591 0.757 1.003 1.635 1.235 0.882 0.223 1.996 0.25 3.34 0.08 1.345-0.17 2.804-0.536 4.377-1.1v0c3.561-1.276 5.854-2.088 6.879-2.434v0l1.718-0.615-0.061-0.17c-7.691 0.982-11.987 0.218-12.886-2.292v0c-0.198-0.554-0.236-1.005-0.113-1.355 0.132-0.345 0.466-0.671 1.002-0.976 0.539-0.3 1.393-0.659 2.563-1.079v0l8.106-2.905c0.308-0.11 0.539-0.278 0.692-0.504 0.158-0.234 0.196-0.464 0.115-0.691v0c-0.171-0.478-0.747-0.847-1.728-1.105v0l0.291-0.616c1.057 0.097 1.819 0.292 2.287 0.586 0.476 0.298 0.855 0.84 1.136 1.627v0c0.273 0.761 0.233 1.422-0.12 1.981-0.347 0.557-0.989 1.004-1.926 1.34v0l-7.851 2.814c-0.711 0.255-0.994 0.584-0.85 0.986v0c0.171 0.478 1.045 0.857 2.622 1.137 1.571 0.282 3.314 0.402 5.23 0.361 1.925-0.037 3.422-0.247 4.492-0.63v0z" fill="#2669b1" data-fill-palette-color="primary"></path><path d="M31.228 167.778l1.897 2.325-5.619 1.877c1.764-0.117 3.339 0.146 4.723 0.79 1.385 0.644 2.351 1.787 2.9 3.428v0c0.387 1.16 0.284 2.17-0.309 3.031-0.593 0.86-1.476 1.486-2.649 1.878v0l-13.901 4.641c-0.539 0.18-0.936 0.436-1.191 0.768-0.253 0.338-0.313 0.707-0.181 1.106v0c0.11 0.33 0.322 0.625 0.635 0.888 0.313 0.262 0.644 0.43 0.992 0.503v0l-0.243 0.536c-0.661-0.061-1.295-0.3-1.9-0.719-0.598-0.42-1.02-0.998-1.265-1.733v0c-0.296-0.887-0.23-1.702 0.198-2.444 0.426-0.748 1.217-1.315 2.37-1.7v0l12.427-4.15c1.078-0.36 1.934-0.78 2.57-1.26 0.636-0.48 0.809-1.154 0.519-2.022v0c-0.368-1.103-1.219-1.837-2.553-2.202-1.336-0.371-2.797-0.486-4.384-0.343-1.581 0.14-2.903 0.388-3.968 0.744v0l-9.641 3.219-1.964-2.303z" fill="#2669b1" data-fill-palette-color="primary"></path><path d="M35.122 192.698l-0.324 0.774c-1.564-0.91-3.081-1.48-4.55-1.709-1.464-0.233-2.921 0.024-4.372 0.768v0c-0.814 0.418-1.546 1.012-2.196 1.781-0.643 0.766-1.062 1.634-1.255 2.605-0.19 0.961-0.038 1.924 0.457 2.886v0c0.4 0.779 0.937 1.378 1.611 1.799 0.674 0.42 1.403 0.64 2.185 0.658 0.789 0.016 1.555-0.167 2.299-0.549v0c0.85-0.436 1.587-1.138 2.21-2.103 0.62-0.972 1.026-2.033 1.217-3.183 0.191-1.15 0.098-2.18-0.279-3.09v0c0.549 0.176 1.154 0.418 1.814 0.725 0.658 0.301 1.311 0.615 1.96 0.943v0c0.225 1.462-0.062 2.856-0.861 4.183-0.793 1.323-1.906 2.353-3.338 3.088v0c-1.266 0.65-2.618 1.017-4.055 1.101-1.431 0.081-2.767-0.187-4.007-0.804-1.25-0.62-2.223-1.608-2.919-2.964v0c-0.558-1.088-0.805-2.227-0.74-3.417 0.068-1.184 0.427-2.277 1.077-3.28 0.659-0.999 1.55-1.787 2.674-2.364v0c1.968-1.01 3.976-1.305 6.025-0.885 2.052 0.427 3.841 1.439 5.367 3.037z" fill="#2669b1" data-fill-palette-color="primary"></path><path d="M48.345 212.427l-10.495 7.724c-0.248 0.182-0.404 0.393-0.469 0.631-0.065 0.239-0.014 0.471 0.152 0.697v0c0.254 0.344 0.883 0.529 1.888 0.553v0l-0.096 0.63c-0.996 0.202-1.821 0.175-2.475-0.082-0.658-0.263-0.987-0.394-0.987-0.394 0 0-0.156-0.213-0.47-0.638v0c-0.388-0.527-0.533-1.035-0.435-1.521 0.093-0.483 0.477-1.065 1.155-1.746 0.681-0.676 1.775-1.568 3.282-2.677v0c0.899-0.661 1.626-1.184 2.181-1.568v0l0.35-0.556-0.059-0.081c-2.331 1.06-4.648 1.853-6.951 2.377-2.312 0.523-3.986 0.08-5.024-1.331v0c-0.384-0.522-0.532-0.999-0.442-1.429 0.085-0.436 0.336-0.845 0.753-1.226 0.411-0.377 1.085-0.91 2.021-1.6v0l6.935-5.104c0.28-0.206 0.455-0.43 0.525-0.673 0.076-0.247 0.036-0.475-0.118-0.684v0c-0.289-0.393-0.944-0.595-1.965-0.608v0l0.174-0.576c0.818-0.196 1.525-0.205 2.119-0.028 0.604 0.178 1.072 0.414 1.405 0.708 0.331 0.304 0.473 0.473 0.425 0.509v0c-0.012-0.016-0.032-0.038-0.062-0.067-0.035-0.024-0.078-0.072-0.129-0.141v0c1.038 1.41 0.747 2.711-0.873 3.903v0l-7.089 5.217c-0.361 0.265-0.587 0.494-0.678 0.686-0.093 0.201-0.097 0.358-0.014 0.471v0c0.519 0.705 1.688 0.857 3.509 0.454 1.821-0.411 3.704-1.033 5.646-1.865 1.934-0.834 3.064-1.372 3.393-1.613v0z" fill="#2669b1" data-fill-palette-color="primary"></path><path d="M53.872 224.648c-1.323 0.011-2.766 0.316-4.329 0.914-1.563 0.599-2.796 1.339-3.701 2.221v0c-0.785 0.765-1.278 1.576-1.477 2.433-0.196 0.862 0.075 1.672 0.811 2.428v0c0.597 0.613 1.328 1.043 2.195 1.29 0.866 0.248 1.747 0.323 2.641 0.226v0l0.093-0.566c-0.745-0.151-1.332-0.447-1.761-0.888v0c-0.667-0.684-0.931-1.435-0.793-2.25 0.143-0.82 0.557-1.564 1.242-2.231v0c1.111-1.082 2.439-1.821 3.984-2.216 1.546-0.396 3.21-0.613 4.992-0.651v0l-0.034-0.638c-1.639-0.399-2.869-1.02-3.69-1.863v0c-0.485-0.498-0.703-1.167-0.655-2.008 0.049-0.841 0.236-1.634 0.563-2.381v0l-3.717 0.164c-0.189 0.39-0.256 0.996-0.201 1.819v0l-4.485 1.515 0.417 1.175 4.515-1.628c0.137 0.342 0.268 0.611 0.394 0.806 0.125 0.186 0.323 0.418 0.593 0.695v0c0.699 0.718 1.499 1.218 2.398 1.499v0z" fill="#2669b1" data-fill-palette-color="primary"></path><path d="M71.842 222.16l-5.369 4.785-1.008-0.375 3.123-5.664zM65.183 230.038l-8.093 9.631c-0.198 0.235-0.3 0.477-0.307 0.724-0.007 0.247 0.1 0.463 0.319 0.648v0c0.169 0.142 0.425 0.222 0.768 0.239 0.339 0.023 0.743-0.022 1.212-0.133v0l0.08 0.669c-0.921 0.369-1.751 0.479-2.49 0.33-0.743-0.144-1.327-0.395-1.752-0.752v0c-0.558-0.469-0.84-1.011-0.845-1.627-0.001-0.612 0.358-1.345 1.075-2.199v0l7.152-8.511z" fill="#2669b1" data-fill-palette-color="primary"></path><path d="M74.594 235.164c0.568 0.388 0.915 0.775 1.041 1.16 0.124 0.376 0.04 0.776-0.25 1.201v0c-0.309 0.452-0.673 0.795-1.091 1.028-0.418 0.233-0.814 0.403-1.187 0.512-0.372 0.118-0.625 0.204-0.759 0.258v0c-0.031 0.472 0.075 1.128 0.32 1.967v0c0.189 0.695 0.316 1.284 0.383 1.767 0.058 0.484 0.008 1.049-0.15 1.694-0.157 0.645-0.489 1.337-0.994 2.077v0c-0.596 0.872-1.336 1.535-2.221 1.991-0.891 0.451-1.828 0.649-2.81 0.593-0.991-0.054-1.923-0.379-2.794-0.974v0c-0.535-0.366-1.044-0.883-1.526-1.552-0.486-0.663-0.737-1.309-0.754-1.935v0l3.221-1.09c0.05 0.803 0.17 1.54 0.359 2.212 0.194 0.675 0.551 1.19 1.07 1.544v0c0.723 0.494 1.505 0.676 2.346 0.546 0.841-0.13 1.492-0.531 1.951-1.204v0c0.366-0.535 0.506-1.22 0.421-2.055-0.08-0.831-0.278-1.885-0.596-3.163v0c-0.043-0.151-0.117-0.456-0.223-0.917-0.104-0.452-0.169-0.807-0.193-1.067v0l-3.533 1.387-0.441-1.079 3.922-1.423c0.213-0.809 0.538-1.534 0.976-2.175v0c0.494-0.723 1.065-1.215 1.712-1.476 0.642-0.265 1.242-0.207 1.8 0.173zM73.921 236.149c-0.221-0.151-0.398-0.187-0.532-0.109-0.144 0.08-0.295 0.236-0.453 0.468v0c-0.207 0.303-0.345 0.594-0.413 0.871-0.064 0.272-0.107 0.465-0.129 0.58v0c0.265 0.003 0.583-0.095 0.954-0.296 0.371-0.2 0.632-0.41 0.783-0.63v0c0.102-0.149 0.138-0.302 0.108-0.461-0.03-0.158-0.136-0.299-0.318-0.423z" fill="#2669b1" data-fill-palette-color="primary"></path><path d="M90.206 230.779l-9.902 19.311 0.107 0.055c0.694-0.899 1.588-1.852 2.683-2.86 1.098-0.999 2.279-1.772 3.543-2.318 1.261-0.54 2.417-0.54 3.47 0v0c0.559 0.287 0.866 0.699 0.92 1.237 0.051 0.544-0.029 1.082-0.241 1.612-0.212 0.53-0.532 1.214-0.962 2.052v0l-3.869 7.546c-0.113 0.22-0.154 0.462-0.124 0.725 0.033 0.272 0.195 0.483 0.487 0.633v0c0.47 0.241 1.13 0.132 1.98-0.325v0l0.12 0.579c-0.561 0.464-1.224 0.762-1.991 0.895-0.766 0.133-1.429 0.056-1.988-0.231v0c-1.409-0.723-1.646-1.997-0.71-3.822v0l3.691-7.199c0.122-0.238 0.184-0.484 0.187-0.737 0-0.248-0.12-0.433-0.358-0.556v0c-0.922-0.473-2.087-0.162-3.497 0.933-1.404 1.098-2.731 2.419-3.981 3.964-1.25 1.544-2.032 2.623-2.346 3.235v0l-2.783-0.526 12.536-24.449z" fill="#2669b1" data-fill-palette-color="primary"></path><path d="M104.692 240.245l-3.429 6.321-1.075-0.011 1.018-6.388zM101.098 249.913l-4.348 11.805c-0.106 0.288-0.121 0.55-0.043 0.785 0.077 0.235 0.251 0.402 0.52 0.501v0c0.207 0.076 0.475 0.064 0.803-0.035 0.326-0.093 0.691-0.272 1.095-0.536v0l0.302 0.602c-0.742 0.66-1.485 1.045-2.231 1.155-0.748 0.116-1.382 0.078-1.902-0.114v0c-0.684-0.252-1.133-0.666-1.347-1.244-0.208-0.575-0.12-1.386 0.266-2.433v0l3.842-10.432z" fill="#2669b1" data-fill-palette-color="primary"></path><path d="M118.345 253.845c0.795 0.179 1.245 0.588 1.347 1.228 0.109 0.641 0.048 1.477-0.183 2.507v0l-0.207 0.919-1.894 8.43c-0.05 0.222-0.032 0.462 0.054 0.721 0.086 0.259 0.259 0.418 0.519 0.477v0c0.339 0.076 0.651 0.03 0.936-0.139 0.29-0.161 0.59-0.385 0.9-0.671v0l0.349 0.551c-0.442 0.565-1.012 1.016-1.711 1.351-0.697 0.33-1.317 0.434-1.858 0.312v0c-0.795-0.179-1.356-0.565-1.681-1.158-0.326-0.594-0.375-1.396-0.148-2.407v0l1.774-7.892c0.067-0.3 0.094-0.558 0.081-0.773-0.015-0.209-0.139-0.34-0.374-0.392v0c-0.815-0.183-1.826 0.415-3.034 1.794-1.206 1.373-2.329 2.959-3.371 4.76-1.042 1.8-1.631 3.007-1.768 3.619v0l-2.768 0.2 2.866-12.753c0.062-0.274 0.043-0.542-0.056-0.804-0.097-0.268-0.283-0.433-0.557-0.494v0c-0.476-0.107-1.09 0.204-1.842 0.931v0l-0.335-0.568c0.415-0.66 0.978-1.167 1.688-1.521 0.702-0.349 1.349-0.457 1.942-0.324v0c0.835 0.188 1.413 0.526 1.734 1.016 0.315 0.489 0.395 1.078 0.24 1.77v0l-1.761 7.834 0.118 0.026c0.938-1.645 1.802-3.068 2.592-4.267 0.79-1.199 1.762-2.279 2.916-3.238 1.154-0.96 2.318-1.308 3.492-1.045z" fill="#2669b1" data-fill-palette-color="primary"></path><path d="M133.858 255.653c0.973 0.075 1.885 0.414 2.737 1.016 0.851 0.609 1.474 1.388 1.87 2.337v0l-2.281 1.02c-0.251-0.737-0.644-1.33-1.179-1.78-0.535-0.45-1.149-0.702-1.842-0.756v0c-1.013-0.078-1.926 0.2-2.739 0.834-0.813 0.634-1.469 1.441-1.966 2.421-0.491 0.981-0.772 1.928-0.844 2.84v0c-0.11 1.419 0.093 2.702 0.608 3.848 0.508 1.139 1.422 1.759 2.741 1.861v0c1.506 0.117 2.594-0.476 3.264-1.779 0.671-1.309 1.067-2.743 1.188-4.301v0l0.106-1.369 2.826-0.918-0.721 9.315c-0.118 1.519-0.592 3.064-1.424 4.635-0.839 1.571-1.923 2.844-3.252 3.82-1.329 0.976-2.776 1.404-4.342 1.283v0c-1.113-0.086-1.966-0.537-2.559-1.354v0l2.758-1.999c0.112 0.377 0.328 0.692 0.651 0.945 0.316 0.246 0.727 0.388 1.234 0.428v0c1.519 0.118 2.552-0.369 3.099-1.46 0.54-1.091 0.876-2.489 1.008-4.195v0l0.102-2.495c0.058-0.753 0.179-1.357 0.362-1.812v0l-0.22-0.017c-0.837 1.122-1.632 1.988-2.383 2.601-0.758 0.618-1.624 0.89-2.597 0.814v0c-1.746-0.135-3.04-0.815-3.883-2.04-0.844-1.218-1.198-2.71-1.062-4.475v0c0.133-1.719 0.608-3.308 1.425-4.766 0.817-1.458 1.877-2.603 3.181-3.434 1.297-0.825 2.675-1.18 4.134-1.068z" fill="#2669b1" data-fill-palette-color="primary"></path><path d="M164.405 253.416l1.996 13.901c0.272 1.892 0.149 3.719-0.367 5.481-0.517 1.755-1.33 3.219-2.437 4.391-1.109 1.165-2.367 1.849-3.777 2.051v0c-0.542 0.078-1.07 0.069-1.583-0.025-0.506-0.089-1.047-0.288-1.625-0.597v0l1.727-2.993c0.484 0.363 1.033 0.635 1.646 0.817 0.613 0.175 1.17 0.227 1.673 0.154v0c0.622-0.089 1.134-0.541 1.537-1.355 0.395-0.82 0.644-1.905 0.748-3.256 0.103-1.352 0.036-2.854-0.202-4.508v0c-0.538-3.744-0.874-6.153-1.008-7.228v0l-0.26-1.806-0.178 0.026c-0.577 7.732-2.185 11.788-4.825 12.167v0c-0.582 0.084-1.032 0.03-1.349-0.161-0.312-0.198-0.564-0.591-0.757-1.177-0.186-0.588-0.367-1.497-0.544-2.727v0l-1.224-8.523c-0.047-0.324-0.165-0.584-0.355-0.78-0.198-0.201-0.416-0.285-0.654-0.25v0c-0.503 0.072-0.979 0.563-1.429 1.471v0l-0.545-0.408c0.306-1.016 0.65-1.724 1.032-2.123 0.387-0.407 0.994-0.669 1.821-0.788v0c0.8-0.115 1.439 0.057 1.917 0.515 0.477 0.451 0.786 1.17 0.928 2.155v0l1.186 8.255c0.107 0.747 0.373 1.091 0.796 1.03v0c0.503-0.072 1.049-0.853 1.638-2.342 0.59-1.482 1.057-3.166 1.401-5.052 0.349-1.893 0.443-3.402 0.281-4.526v0z" fill="#2669b1" data-fill-palette-color="primary"></path><path d="M175.773 250.352l0.704 0.457c-1.176 1.375-2.008 2.765-2.497 4.17-0.491 1.399-0.501 2.878-0.028 4.439v0c0.265 0.876 0.718 1.703 1.358 2.479 0.638 0.77 1.417 1.337 2.337 1.701 0.912 0.359 1.886 0.382 2.922 0.069v0c0.838-0.254 1.524-0.674 2.058-1.262 0.534-0.588 0.881-1.265 1.04-2.033 0.157-0.774 0.114-1.56-0.128-2.359v0c-0.277-0.915-0.835-1.765-1.674-2.552-0.845-0.785-1.816-1.374-2.912-1.768-1.097-0.394-2.127-0.487-3.091-0.279v0c0.272-0.508 0.618-1.06 1.039-1.655 0.414-0.593 0.84-1.18 1.279-1.759v0c1.479 0.041 2.799 0.573 3.961 1.597 1.16 1.017 1.973 2.297 2.44 3.838v0c0.412 1.362 0.531 2.758 0.356 4.186-0.177 1.422-0.68 2.688-1.51 3.799-0.834 1.118-1.981 1.898-3.439 2.339v0c-1.17 0.354-2.335 0.393-3.495 0.116-1.153-0.279-2.164-0.829-3.033-1.648-0.865-0.827-1.48-1.845-1.847-3.054v0c-0.641-2.117-0.571-4.146 0.21-6.086 0.787-1.942 2.104-3.521 3.95-4.735z" fill="#2669b1" data-fill-palette-color="primary"></path><path d="M197.548 240.875l5.721 11.708c0.135 0.276 0.314 0.468 0.538 0.574 0.223 0.107 0.461 0.098 0.713-0.025v0c0.384-0.188 0.678-0.774 0.881-1.758v0l0.603 0.207c0.021 1.016-0.154 1.823-0.524 2.421-0.376 0.6-0.564 0.9-0.564 0.9 0 0-0.237 0.116-0.711 0.348v0c-0.588 0.288-1.113 0.34-1.575 0.156-0.459-0.178-0.962-0.66-1.511-1.449-0.543-0.791-1.225-2.027-2.047-3.708v0c-0.49-1.003-0.874-1.812-1.152-2.427v0l-0.485-0.443-0.09 0.044c0.626 2.483 0.991 4.905 1.095 7.263 0.101 2.368-0.635 3.936-2.208 4.705v0c-0.582 0.285-1.078 0.344-1.486 0.18-0.414-0.162-0.771-0.482-1.071-0.961-0.298-0.472-0.702-1.23-1.212-2.275v0l-3.781-7.736c-0.153-0.312-0.342-0.525-0.568-0.637-0.229-0.119-0.461-0.121-0.695-0.006v0c-0.438 0.214-0.755 0.823-0.949 1.825v0l-0.535-0.274c-0.046-0.84 0.071-1.537 0.35-2.091 0.283-0.562 0.599-0.981 0.949-1.255 0.358-0.272 0.55-0.381 0.576-0.327v0c-0.018 0.009-0.044 0.025-0.076 0.049-0.03 0.03-0.084 0.063-0.163 0.101v0c1.573-0.769 2.801-0.249 3.685 1.558v0l3.864 7.908c0.197 0.402 0.381 0.665 0.553 0.789 0.181 0.127 0.335 0.16 0.461 0.098v0c0.787-0.384 1.145-1.508 1.075-3.37-0.079-1.866-0.354-3.829-0.825-5.889-0.474-2.052-0.801-3.26-0.98-3.627v0z" fill="#2669b1" data-fill-palette-color="primary"></path><path d="M208.051 224.796l4.911 6.465 3.377-2.564 0.456 2.108-2.65 2.013 6.499 8.557c0.186 0.245 0.409 0.39 0.671 0.435 0.266 0.041 0.519-0.029 0.758-0.211v0c0.341-0.259 0.571-0.933 0.691-2.023v0l0.623 0.106c0.156 0.846 0.134 1.585-0.067 2.216-0.205 0.625-0.468 1.119-0.789 1.48-0.331 0.36-0.52 0.508-0.569 0.445v0c0.016-0.012 0.038-0.033 0.066-0.063 0.024-0.035 0.07-0.079 0.14-0.131v0c-1.426 1.083-2.76 0.808-4.001-0.825v0l-6.281-8.27-1.828 1.388-0.424-2.132 1.069-0.813-4.244-5.587z" fill="#2669b1" data-fill-palette-color="primary"></path><path d="M223.324 221.687l0.835 0.086c-0.421 1.76-0.53 3.376-0.326 4.85 0.199 1.469 0.864 2.791 1.995 3.966v0c0.635 0.66 1.414 1.19 2.337 1.59 0.919 0.396 1.871 0.546 2.856 0.451 0.975-0.095 1.853-0.518 2.633-1.269v0c0.631-0.607 1.05-1.294 1.258-2.06 0.208-0.766 0.209-1.527 0.001-2.283-0.212-0.76-0.608-1.441-1.187-2.043v0c-0.663-0.688-1.546-1.192-2.651-1.511-1.109-0.314-2.242-0.397-3.399-0.248-1.156 0.148-2.116 0.534-2.879 1.157v0c0.011-0.576 0.068-1.225 0.172-1.946 0.099-0.717 0.212-1.433 0.339-2.149v0c1.335-0.636 2.753-0.763 4.253-0.38 1.496 0.378 2.802 1.147 3.919 2.308v0c0.987 1.025 1.728 2.214 2.223 3.565 0.49 1.347 0.617 2.703 0.383 4.07-0.234 1.376-0.9 2.592-1.997 3.648v0c-0.881 0.848-1.901 1.412-3.06 1.693-1.154 0.276-2.304 0.247-3.451-0.087-1.147-0.343-2.158-0.97-3.034-1.879v0c-1.534-1.594-2.395-3.432-2.582-5.515-0.182-2.088 0.271-4.092 1.362-6.014z" fill="#2669b1" data-fill-palette-color="primary"></path><path d="M228.355 195.983l20.316 15.396c0.229 0.174 0.475 0.28 0.738 0.32 0.267 0.035 0.487-0.062 0.661-0.291v0c0.174-0.229 0.244-0.532 0.211-0.909-0.034-0.386-0.129-0.726-0.283-1.02v0l0.742-0.167c0.351 0.677 0.536 1.4 0.557 2.17 0.019 0.761-0.145 1.37-0.492 1.828v0c-0.565 0.746-1.187 1.129-1.866 1.152-0.679 0.022-1.532-0.368-2.559-1.172v0l-0.072 0.096c1.247 2.504 1.329 4.47 0.247 5.897v0c-1.07 1.411-2.382 2.119-3.936 2.124-1.553 0.014-3.067-0.539-4.543-1.657v0c-1.166-0.884-2.136-2.017-2.908-3.398-0.771-1.372-1.176-2.807-1.216-4.305-0.039-1.497 0.403-2.856 1.328-4.075v0c0.577-0.762 1.274-1.277 2.091-1.547v0l-9.827-7.447zM236.603 209.214c-0.686 0.905-0.971 1.868-0.855 2.886 0.122 1.023 0.48 1.978 1.075 2.865 0.589 0.882 1.232 1.588 1.93 2.116v0c0.554 0.42 1.238 0.783 2.053 1.091 0.811 0.313 1.619 0.43 2.425 0.353 0.814-0.079 1.478-0.456 1.99-1.133v0c0.936-1.236 1.044-2.479 0.323-3.729-0.73-1.249-1.734-2.358-3.012-3.327v0l-3.34-2.531c-0.493 0.054-0.97 0.196-1.429 0.426-0.45 0.229-0.837 0.557-1.16 0.983z" fill="#2669b1" data-fill-palette-color="primary"></path><path d="M245.508 191.967c0.471-0.877 1.105-1.606 1.902-2.188 0.794-0.575 1.673-0.835 2.637-0.78v0l0.013 2.499c-0.567 0.067-1.15 0.263-1.748 0.586-0.604 0.32-1.061 0.769-1.371 1.346v0c-0.49 0.913-0.68 1.839-0.569 2.777 0.114 0.933 0.477 1.796 1.091 2.588 0.614 0.792 1.413 1.452 2.396 1.98v0c1.419 0.762 2.703 1.14 3.851 1.134 1.142-0.009 1.993-0.534 2.552-1.576v0c0.79-1.472 0.742-2.802-0.144-3.991-0.886-1.189-2.027-2.158-3.423-2.907v0l-1.21-0.649 0.272-2.903 7.075 3.797c0.236 0.126 0.494 0.182 0.775 0.166 0.284-0.007 0.494-0.137 0.631-0.39v0c0.278-0.518 0.173-1.185-0.315-2v0l0.651-0.174c0.49 0.543 0.803 1.197 0.939 1.96 0.127 0.766 0.047 1.417-0.24 1.953v0c-0.414 0.771-1.005 1.186-1.772 1.245-0.776 0.061-1.638-0.163-2.586-0.672v0l-0.029 0.053c0.708 0.956 1.176 1.985 1.404 3.086 0.231 1.11 0.12 2.086-0.331 2.928v0c-0.819 1.525-1.963 2.393-3.434 2.605-1.468 0.221-3.08-0.14-4.835-1.082v0c-1.401-0.752-2.545-1.772-3.432-3.059-0.896-1.285-1.419-2.669-1.571-4.154-0.155-1.478 0.119-2.871 0.821-4.178z" fill="#2669b1" data-fill-palette-color="primary"></path><path d="M254.103 170.016l13.22 4.739c1.799 0.645 3.357 1.608 4.672 2.888 1.309 1.279 2.223 2.681 2.74 4.209 0.511 1.525 0.527 2.957 0.047 4.297v0c-0.185 0.516-0.439 0.978-0.764 1.388-0.316 0.405-0.745 0.791-1.288 1.157v0l-1.837-2.927c0.547-0.258 1.044-0.616 1.493-1.073 0.442-0.459 0.748-0.928 0.919-1.406v0c0.212-0.591 0.052-1.255-0.479-1.993-0.539-0.733-1.382-1.461-2.528-2.184-1.146-0.723-2.506-1.367-4.079-1.93v0c-3.561-1.276-5.847-2.106-6.859-2.491v0l-1.718-0.615-0.061 0.17c6.564 4.127 9.396 7.446 8.496 9.956v0c-0.198 0.554-0.456 0.926-0.773 1.117-0.321 0.183-0.786 0.222-1.394 0.118-0.606-0.111-1.494-0.376-2.665-0.795v0l-8.106-2.905c-0.308-0.11-0.593-0.127-0.855-0.051-0.27 0.081-0.446 0.234-0.527 0.46v0c-0.171 0.478 0.039 1.129 0.632 1.952v0l-0.615 0.29c-0.755-0.746-1.219-1.381-1.394-1.905-0.178-0.532-0.127-1.192 0.155-1.978v0c0.273-0.761 0.723-1.246 1.352-1.454 0.622-0.21 1.402-0.147 2.339 0.189v0l7.851 2.814c0.711 0.255 1.138 0.181 1.282-0.222v0c0.171-0.478-0.263-1.326-1.303-2.543-1.034-1.215-2.304-2.416-3.809-3.602-1.51-1.194-2.8-1.983-3.87-2.366v0z" fill="#2669b1" data-fill-palette-color="primary"></path><path d="M2.921 136.451c0-5.95 4.824-10.774 10.774-10.774 5.95 0 10.774 4.824 10.774 10.774 0 5.95-4.824 10.774-10.774 10.774-5.95 0-10.774-4.824-10.774-10.774z" fill="#2669b1" data-fill-palette-color="primary"></path><path d="M255.531 136.451c0-5.95 4.824-10.774 10.774-10.774 5.95 0 10.774 4.824 10.774 10.774 0 5.95-4.824 10.774-10.774 10.774-5.95 0-10.774-4.824-10.774-10.774z" fill="#2669b1" data-fill-palette-color="primary"></path></g><g id="text-1"></g></svg></g></svg></g></svg></g><g></g></svg></g><defs></defs><mask id="0b54f2ec-0a63-44ab-afe5-d25deef228f5"><g id="SvgjsG1303"><svg viewBox="0 0 280 280" height="280" width="280"><g><svg viewBox="0 0 280 280" height="280" width="280"><g><svg viewBox="0 0 280 280" height="280" width="280"><g id="SvgjsG1302"><svg viewBox="0 0 280 280" height="280" width="280" id="SvgjsSvg1301"><g><svg viewBox="0 0 280 280" height="280" width="280"><g transform="matrix(1,0,0,1,118.27890112802186,90.50252531694167)"><svg viewBox="0 0 43.44219774395628 98.99494936611666" height="98.99494936611666" width="43.44219774395628"><g id="SvgjsG1300"><svg xmlns="http://www.w3.org/2000/svg" xmlns:xlink="http://www.w3.org/1999/xlink" version="1.1" x="0" y="0" viewBox="30.42698392877789 5.400634831871577 39.14357737522634 89.19936516812844" enable-background="new 0 0 100 100" xml:space="preserve" height="98.99494936611666" width="43.44219774395628" class="icon-xg-0" data-fill-palette-color="accent" id="SvgjsSvg1299"><g fill="white"><path d="M69.57 24.966c-0.006-0.49-0.031-0.751-0.031-0.751s-0.102 0.238-0.293 0.688c-0.184 0.447-0.485 1.094-0.854 1.907-0.377 0.812-0.836 1.788-1.393 2.879-0.557 1.09-1.203 2.297-1.963 3.557-0.756 1.261-1.623 2.575-2.621 3.853-0.994 1.279-2.129 2.513-3.393 3.585-0.324 0.254-0.652 0.509-0.981 0.756l-0.508 0.35c-0.167 0.121-0.339 0.234-0.519 0.33-0.354 0.204-0.702 0.423-1.076 0.582-0.156 0.07-0.306 0.15-0.459 0.227H44.53l-0.465-0.233c-0.375-0.158-0.723-0.376-1.077-0.58-0.181-0.096-0.352-0.21-0.519-0.33l-0.508-0.35c-0.329-0.254-0.656-0.506-0.979-0.757-1.264-1.07-2.397-2.305-3.391-3.584-0.999-1.275-1.866-2.591-2.622-3.851-0.76-1.259-1.407-2.467-1.964-3.556-0.558-1.091-1.018-2.066-1.396-2.878-0.369-0.813-0.67-1.459-0.855-1.906-0.192-0.449-0.294-0.688-0.294-0.688s-0.025 0.262-0.032 0.752c0 0.488-0.013 1.212 0.054 2.126 0.127 1.828 0.46 4.447 1.422 7.512 0.485 1.529 1.128 3.168 2.017 4.84 0.893 1.665 2.027 3.374 3.519 4.949 0.385 0.383 0.767 0.78 1.188 1.147 0.216 0.179 0.433 0.357 0.65 0.538 0.216 0.183 0.438 0.358 0.678 0.52 0.35 0.247 0.706 0.492 1.075 0.723 1.263 4.214 2.972 10.613 3.291 15.332 0.517 7.65-10.131 31.945-10.131 31.945s9.497-6.1 15.81-23.468c6.313 17.368 15.811 23.468 15.811 23.468S55.162 70.304 55.68 62.653c0.318-4.723 2.029-11.128 3.293-15.342 0.367-0.229 0.721-0.473 1.068-0.719 0.24-0.16 0.463-0.337 0.679-0.519 0.218-0.181 0.435-0.359 0.649-0.538 0.419-0.368 0.801-0.766 1.187-1.148 1.491-1.574 2.624-3.283 3.517-4.948 0.889-1.67 1.531-3.31 2.018-4.838 0.961-3.063 1.297-5.683 1.424-7.51C69.583 26.179 69.569 25.454 69.57 24.966z" fill="white"></path></g><g fill="white"><circle cx="49.999" cy="34.692" r="6.0" fill="white"></circle></g><g fill="white"><path d="M50 26.229l-0.327-0.204c-0.369-0.229-9.055-5.679-10.978-11.096-0.919-2.592-0.679-5.166 0.66-7.063 1.192-1.688 3.114-2.633 5.035-2.44C47.111 5.698 49.13 7.294 50 8.109c0.869-0.815 2.888-2.411 5.61-2.684 1.918-0.191 3.843 0.752 5.035 2.44 1.339 1.896 1.58 4.471 0.66 7.063-1.923 5.417-10.609 10.866-10.978 11.096L50 26.229zM43.896 6.642c-1.351 0-2.67 0.726-3.528 1.94-1.12 1.586-1.299 3.692-0.504 5.932 1.579 4.447 8.538 9.2 10.136 10.246 1.599-1.046 8.558-5.799 10.136-10.246 0.794-2.239 0.615-4.346-0.505-5.932-0.936-1.325-2.422-2.067-3.897-1.922-3.106 0.311-5.245 2.716-5.266 2.74l-0.468 0.534-0.467-0.535c-0.021-0.023-2.16-2.429-5.266-2.739C44.143 6.647 44.019 6.642 43.896 6.642z" fill="white"></path></g></svg></g></svg></g><g id="SvgjsG1298"><path d="M6.204 96.768l-0.119-2.998 5.619 1.876c-1.481-0.967-2.581-2.123-3.301-3.47-0.72-1.347-0.806-2.841-0.258-4.482v0c0.387-1.16 1.077-1.906 2.068-2.237 0.991-0.331 2.073-0.301 3.246 0.091v0l13.901 4.642c0.539 0.18 1.01 0.214 1.413 0.102 0.406-0.118 0.675-0.377 0.809-0.776v0c0.11-0.33 0.119-0.693 0.026-1.091-0.093-0.397-0.256-0.73-0.491-0.999v0l0.517-0.281c0.492 0.446 0.854 1.018 1.086 1.715 0.226 0.695 0.216 1.411-0.029 2.146v0c-0.296 0.887-0.839 1.499-1.627 1.834-0.791 0.342-1.763 0.32-2.917-0.064v0l-12.426-4.15c-1.078-0.36-2.015-0.539-2.812-0.537-0.797 0.002-1.34 0.437-1.63 1.305v0c-0.368 1.103-0.129 2.201 0.718 3.294 0.845 1.099 1.944 2.069 3.298 2.908 1.348 0.838 2.554 1.434 3.619 1.79v0l9.641 3.219 0.186 3.021z" fill="black"></path><path d="M21.817 73.375l0.818-0.189c0.172 1.801 0.593 3.366 1.263 4.694 0.664 1.325 1.722 2.36 3.173 3.105v0c0.814 0.418 1.723 0.667 2.727 0.746 0.997 0.076 1.947-0.09 2.847-0.499 0.892-0.406 1.585-1.091 2.08-2.054v0c0.4-0.779 0.574-1.565 0.522-2.357-0.051-0.793-0.298-1.512-0.739-2.159-0.447-0.65-1.043-1.166-1.786-1.548v0c-0.85-0.436-1.849-0.626-2.997-0.57-1.151 0.063-2.25 0.351-3.296 0.866-1.046 0.515-1.828 1.191-2.348 2.029v0c-0.176-0.549-0.333-1.181-0.468-1.897-0.139-0.71-0.264-1.424-0.377-2.143v0c1.057-1.035 2.357-1.614 3.901-1.738 1.538-0.127 3.023 0.177 4.456 0.912v0c1.266 0.65 2.352 1.534 3.258 2.653 0.9 1.115 1.46 2.357 1.682 3.726 0.224 1.377-0.011 2.744-0.707 4.099v0c-0.558 1.088-1.34 1.952-2.346 2.593-1.002 0.635-2.1 0.98-3.292 1.036-1.196 0.047-2.356-0.218-3.48-0.794v0c-1.968-1.01-3.378-2.47-4.23-4.38-0.849-1.916-1.07-3.959-0.661-6.131z" fill="black"></path><path d="M36.058 51.433l10.495 7.724c0.248 0.182 0.495 0.269 0.742 0.26 0.247-0.009 0.454-0.126 0.621-0.353v0c0.254-0.344 0.242-1-0.034-1.966v0l0.63-0.096c0.489 0.891 0.708 1.687 0.658 2.388-0.055 0.706-0.083 1.059-0.083 1.059 0 0-0.156 0.213-0.469 0.638v0c-0.388 0.527-0.829 0.817-1.324 0.868-0.489 0.055-1.159-0.139-2.01-0.583-0.847-0.449-2.025-1.229-3.532-2.338v0c-0.899-0.661-1.614-1.2-2.145-1.617v0l-0.636-0.168-0.059 0.08c1.705 1.911 3.151 3.887 4.336 5.93 1.187 2.052 1.261 3.783 0.223 5.192v0c-0.384 0.522-0.795 0.804-1.233 0.847-0.442 0.048-0.907-0.07-1.395-0.354-0.482-0.28-1.192-0.765-2.128-1.454v0l-6.935-5.104c-0.28-0.206-0.546-0.306-0.798-0.302-0.258 0.001-0.464 0.106-0.619 0.317v0c-0.289 0.393-0.288 1.079 0.005 2.057v0l-0.602 0.005c-0.43-0.723-0.649-1.395-0.658-2.015-0.01-0.629 0.077-1.147 0.259-1.552 0.191-0.407 0.311-0.592 0.36-0.557v0c-0.012 0.016-0.027 0.042-0.046 0.079-0.013 0.04-0.045 0.095-0.096 0.165v0c1.038-1.41 2.367-1.519 3.986-0.326v0l7.089 5.216c0.361 0.265 0.646 0.413 0.856 0.444 0.219 0.029 0.371-0.013 0.454-0.127v0c0.519-0.705 0.316-1.867-0.609-3.485-0.934-1.617-2.088-3.229-3.46-4.836-1.371-1.598-2.221-2.518-2.549-2.76v0z" fill="black"></path><path d="M48.889 43.4c0.046 1.323 0.388 2.757 1.028 4.304 0.639 1.546 1.411 2.76 2.316 3.642v0c0.785 0.765 1.609 1.236 2.471 1.413 0.867 0.173 1.669-0.119 2.406-0.875v0c0.597-0.613 1.008-1.355 1.232-2.227 0.225-0.872 0.277-1.755 0.157-2.647v0l-0.568-0.077c-0.132 0.748-0.412 1.343-0.841 1.783v0c-0.667 0.684-1.41 0.968-2.229 0.851-0.824-0.122-1.578-0.516-2.263-1.182v0c-1.111-1.082-1.884-2.39-2.32-3.925-0.436-1.535-0.696-3.193-0.78-4.973v0l-0.638 0.05c-0.356 1.649-0.945 2.895-1.766 3.738v0c-0.485 0.498-1.148 0.733-1.989 0.706-0.842-0.027-1.64-0.194-2.396-0.5v0l0.261 3.711c0.395 0.179 1.003 0.23 1.824 0.154v0l1.632 4.444 1.164-0.448-1.746-4.471c0.338-0.146 0.604-0.284 0.796-0.414 0.183-0.13 0.409-0.334 0.679-0.612v0c0.699-0.718 1.178-1.53 1.436-2.436v0z" fill="black"></path><path d="M49.452 24.097l3.788 6.113-0.543 0.928-5.041-4.052zM56.065 32.014l8.093 9.631c0.198 0.235 0.418 0.378 0.66 0.427 0.242 0.05 0.474-0.018 0.693-0.203v0c0.169-0.142 0.292-0.38 0.368-0.715 0.081-0.33 0.107-0.735 0.078-1.217v0l0.672 0.037c0.205 0.971 0.17 1.808-0.104 2.51-0.27 0.707-0.617 1.239-1.042 1.595v0c-0.558 0.469-1.14 0.653-1.748 0.553-0.603-0.104-1.263-0.584-1.981-1.438v0l-7.152-8.511z" fill="black"></path><path d="M65.05 23.767c0.568-0.388 1.055-0.571 1.459-0.548 0.395 0.021 0.738 0.245 1.028 0.67v0c0.309 0.452 0.496 0.916 0.561 1.389 0.065 0.474 0.08 0.905 0.045 1.293-0.025 0.39-0.037 0.657-0.036 0.801v0c0.429 0.201 1.078 0.34 1.949 0.417v0c0.716 0.077 1.311 0.172 1.785 0.286 0.472 0.123 0.98 0.374 1.524 0.755 0.544 0.381 1.068 0.942 1.573 1.681v0c0.596 0.872 0.944 1.803 1.046 2.794 0.096 0.994-0.06 1.939-0.468 2.833-0.411 0.904-1.052 1.653-1.924 2.249v0c-0.535 0.366-1.202 0.651-2 0.856-0.795 0.211-1.487 0.21-2.077-0.001v0l0.156-3.397c0.766 0.245 1.497 0.402 2.191 0.47 0.7 0.064 1.309-0.081 1.827-0.434v0c0.723-0.494 1.177-1.156 1.362-1.987 0.185-0.831 0.048-1.583-0.412-2.256v0c-0.366-0.535-0.953-0.915-1.761-1.139-0.803-0.228-1.857-0.427-3.163-0.596v0c-0.156-0.015-0.468-0.057-0.935-0.126-0.459-0.067-0.813-0.136-1.065-0.207v0l0.007 3.795-1.165 0.019 0.1-4.172c-0.677-0.493-1.233-1.059-1.67-1.699v0c-0.494-0.723-0.745-1.434-0.753-2.133-0.013-0.695 0.259-1.233 0.816-1.613zM65.723 24.752c-0.221 0.151-0.319 0.303-0.295 0.456 0.022 0.163 0.113 0.36 0.271 0.592v0c0.207 0.303 0.428 0.537 0.661 0.702 0.23 0.159 0.394 0.269 0.493 0.331v0c0.099-0.246 0.123-0.578 0.072-0.997-0.051-0.418-0.152-0.738-0.303-0.958v0c-0.102-0.149-0.232-0.238-0.389-0.268-0.158-0.03-0.328 0.018-0.51 0.142z" fill="black"></path><path d="M71.821 6.266l9.901 19.312 0.107-0.055c-0.325-1.088-0.577-2.37-0.756-3.848-0.17-1.475-0.108-2.885 0.186-4.229 0.297-1.339 0.972-2.278 2.025-2.818v0c0.559-0.287 1.073-0.295 1.541-0.025 0.472 0.276 0.861 0.655 1.169 1.136 0.307 0.481 0.675 1.141 1.105 1.979v0l3.869 7.546c0.113 0.22 0.285 0.395 0.516 0.524 0.24 0.132 0.506 0.123 0.798-0.026v0c0.47-0.241 0.767-0.84 0.892-1.798v0l0.54 0.242c0.049 0.726-0.096 1.439-0.436 2.138-0.34 0.7-0.789 1.193-1.347 1.48v0c-1.409 0.723-2.582 0.171-3.518-1.655v0l-3.691-7.198c-0.122-0.238-0.285-0.432-0.49-0.583-0.202-0.144-0.421-0.156-0.66-0.033v0c-0.922 0.473-1.35 1.601-1.283 3.384 0.072 1.781 0.37 3.629 0.894 5.545 0.525 1.916 0.944 3.181 1.258 3.794v0l-2.052 1.953-12.535-24.45z" fill="black"></path><path d="M92.662 0l1.491 7.035-0.825 0.689-3.369-5.521zM96.199 9.689l4.349 11.805c0.106 0.288 0.265 0.497 0.476 0.626 0.211 0.129 0.452 0.143 0.721 0.044v0c0.207-0.076 0.403-0.259 0.589-0.548 0.188-0.283 0.35-0.656 0.485-1.119v0l0.62 0.263c-0.136 0.983-0.453 1.758-0.948 2.326-0.494 0.574-1.001 0.956-1.522 1.148v0c-0.684 0.252-1.294 0.227-1.832-0.073-0.532-0.303-0.99-0.978-1.376-2.025v0l-3.843-10.431z" fill="black"></path><path d="M115.066 4.465c0.795-0.179 1.376-0.001 1.743 0.533 0.373 0.533 0.675 1.314 0.907 2.345v0l0.206 0.919 1.895 8.43c0.05 0.222 0.169 0.431 0.357 0.629 0.188 0.197 0.413 0.267 0.673 0.208v0c0.339-0.076 0.601-0.251 0.786-0.526 0.193-0.269 0.369-0.6 0.527-0.991v0l0.551 0.348c-0.158 0.7-0.481 1.351-0.968 1.954-0.489 0.596-1.005 0.955-1.546 1.077v0c-0.795 0.179-1.467 0.069-2.016-0.328-0.548-0.397-0.936-1.101-1.162-2.112v0l-1.774-7.892c-0.067-0.3-0.153-0.544-0.257-0.734-0.103-0.182-0.271-0.247-0.506-0.194v0c-0.815 0.183-1.473 1.156-1.974 2.919-0.503 1.757-0.839 3.671-1.011 5.745-0.171 2.073-0.188 3.416-0.05 4.028v0l-2.416 1.365-2.866-12.753c-0.062-0.274-0.193-0.508-0.394-0.703-0.203-0.201-0.441-0.271-0.715-0.209v0c-0.476 0.107-0.898 0.65-1.267 1.63v0l-0.546-0.37c0.093-0.774 0.385-1.473 0.875-2.097 0.485-0.616 1.024-0.99 1.617-1.124v0c0.835-0.188 1.502-0.129 2.002 0.177 0.494 0.307 0.818 0.806 0.974 1.497v0l1.76 7.834 0.118-0.027c0.144-1.889 0.317-3.544 0.517-4.965 0.201-1.422 0.618-2.813 1.251-4.175 0.632-1.361 1.536-2.174 2.709-2.438z" fill="black"></path><path d="M132.686 2.098c0.973-0.075 1.926 0.119 2.86 0.583 0.935 0.471 1.67 1.144 2.208 2.021v0l-2.097 1.359c-0.362-0.689-0.841-1.215-1.439-1.578-0.598-0.363-1.243-0.517-1.936-0.463v0c-1.013 0.078-1.872 0.493-2.578 1.245-0.706 0.752-1.23 1.65-1.571 2.695-0.335 1.045-0.467 2.023-0.396 2.936v0c0.11 1.419 0.507 2.655 1.191 3.709 0.678 1.047 1.676 1.519 2.996 1.417v0c1.506-0.117 2.49-0.87 2.951-2.26 0.462-1.396 0.632-2.874 0.512-4.433v0l-0.106-1.369 2.651-1.341 0.721 9.314c0.118 1.519-0.114 3.119-0.695 4.799-0.587 1.681-1.462 3.106-2.625 4.275-1.163 1.169-2.527 1.814-4.093 1.936v0c-1.113 0.086-2.025-0.229-2.737-0.945v0l2.418-2.399c0.168 0.356 0.431 0.634 0.789 0.834 0.35 0.194 0.778 0.272 1.284 0.233v0c1.519-0.118 2.465-0.757 2.838-1.919 0.366-1.161 0.483-2.594 0.351-4.3v0l-0.282-2.482c-0.058-0.753-0.032-1.368 0.078-1.846v0l-0.22 0.017c-0.655 1.237-1.306 2.216-1.955 2.937-0.654 0.728-1.468 1.129-2.44 1.204v0c-1.746 0.135-3.129-0.338-4.151-1.418-1.021-1.074-1.6-2.494-1.737-4.26v0c-0.133-1.719 0.092-3.362 0.674-4.928 0.583-1.567 1.454-2.861 2.615-3.882 1.155-1.014 2.462-1.578 3.921-1.691z" fill="black"></path><path d="M166.574 4.385l-1.997 13.901c-0.272 1.892-0.903 3.61-1.895 5.156-0.991 1.539-2.182 2.714-3.575 3.527-1.392 0.806-2.792 1.108-4.201 0.905v0c-0.542-0.078-1.046-0.235-1.513-0.47-0.46-0.228-0.924-0.572-1.391-1.031v0l2.5-2.385c0.363 0.484 0.813 0.9 1.35 1.247 0.538 0.341 1.059 0.547 1.562 0.619v0c0.622 0.089 1.241-0.2 1.856-0.867 0.61-0.675 1.155-1.647 1.634-2.915 0.479-1.268 0.838-2.729 1.075-4.382v0c0.538-3.744 0.894-6.15 1.067-7.219v0l0.26-1.806-0.179-0.026c-2.73 7.257-5.415 10.696-8.054 10.317v0c-0.582-0.084-0.999-0.262-1.25-0.534-0.244-0.278-0.375-0.726-0.395-1.343-0.013-0.616 0.069-1.539 0.246-2.77v0l1.225-8.523c0.047-0.324 0.006-0.607-0.121-0.848-0.133-0.249-0.319-0.39-0.557-0.424v0c-0.503-0.072-1.098 0.264-1.786 1.009v0l-0.408-0.544c0.58-0.889 1.109-1.471 1.588-1.747 0.486-0.281 1.142-0.362 1.969-0.244v0c0.8 0.115 1.365 0.459 1.695 1.034 0.33 0.567 0.425 1.344 0.283 2.329v0l-1.186 8.255c-0.107 0.747 0.051 1.152 0.474 1.213v0c0.503 0.072 1.246-0.523 2.231-1.786 0.984-1.256 1.906-2.741 2.767-4.454 0.868-1.718 1.383-3.14 1.544-4.264v0z" fill="black"></path><path d="M180.107 8.237l0.332 0.771c-1.741 0.492-3.205 1.187-4.391 2.085-1.185 0.891-2.013 2.117-2.486 3.677v0c-0.265 0.876-0.347 1.815-0.245 2.817 0.104 0.995 0.437 1.899 1.001 2.712 0.559 0.805 1.357 1.364 2.393 1.678v0c0.838 0.254 1.642 0.284 2.413 0.091 0.771-0.193 1.435-0.564 1.992-1.114 0.56-0.557 0.96-1.235 1.203-2.035v0c0.277-0.915 0.285-1.932 0.023-3.051-0.268-1.121-0.749-2.15-1.443-3.086-0.694-0.936-1.5-1.585-2.417-1.947v0c0.508-0.272 1.102-0.539 1.783-0.801 0.673-0.264 1.353-0.515 2.04-0.754v0c1.208 0.854 2.011 2.03 2.409 3.526 0.401 1.49 0.368 3.006-0.099 4.547v0c-0.412 1.362-1.088 2.589-2.025 3.68-0.936 1.085-2.057 1.859-3.364 2.323-1.315 0.468-2.701 0.481-4.159 0.039v0c-1.17-0.354-2.161-0.969-2.972-1.842-0.804-0.872-1.341-1.89-1.61-3.054-0.261-1.168-0.208-2.357 0.158-3.565v0c0.641-2.117 1.825-3.766 3.551-4.947 1.733-1.179 3.704-1.762 5.913-1.75z" fill="black"></path><path d="M204.246 18.321l-5.721 11.708c-0.135 0.276-0.176 0.535-0.123 0.776 0.053 0.242 0.206 0.424 0.458 0.548v0c0.384 0.188 1.027 0.059 1.928-0.386v0l0.208 0.604c-0.789 0.641-1.533 0.999-2.232 1.074-0.705 0.072-1.057 0.108-1.057 0.108 0 0-0.237-0.116-0.712-0.348v0c-0.588-0.288-0.952-0.67-1.09-1.147-0.142-0.471-0.07-1.165 0.214-2.082 0.291-0.914 0.847-2.212 1.668-3.893v0c0.49-1.003 0.892-1.803 1.206-2.4v0l0.053-0.655-0.09-0.044c-1.575 2.02-3.261 3.795-5.058 5.327-1.806 1.535-3.496 1.918-5.069 1.149v0c-0.582-0.285-0.934-0.639-1.054-1.062-0.126-0.426-0.093-0.905 0.099-1.436 0.189-0.525 0.54-1.309 1.05-2.354v0l3.781-7.736c0.153-0.312 0.204-0.592 0.153-0.84-0.047-0.254-0.188-0.438-0.422-0.552v0c-0.438-0.214-1.113-0.09-2.023 0.373v0l-0.113-0.591c0.635-0.553 1.256-0.889 1.865-1.008 0.618-0.122 1.142-0.13 1.574-0.023 0.434 0.116 0.638 0.2 0.612 0.254v0c-0.018-0.009-0.046-0.019-0.086-0.03-0.042-0.006-0.102-0.027-0.18-0.066v0c1.573 0.769 1.918 2.057 1.035 3.864v0l-3.864 7.908c-0.197 0.402-0.291 0.709-0.283 0.921 0.011 0.221 0.08 0.362 0.205 0.424v0c0.787 0.384 1.893-0.023 3.32-1.222 1.424-1.208 2.803-2.632 4.14-4.27 1.327-1.635 2.08-2.636 2.259-3.002v0z" fill="black"></path><path d="M226.592 23.697l-4.911 6.466 3.377 2.564-1.909 1.005-2.65-2.013-6.5 8.557c-0.186 0.245-0.266 0.499-0.239 0.763 0.032 0.268 0.167 0.492 0.407 0.674v0c0.341 0.259 1.052 0.3 2.134 0.123v0l0.064 0.628c-0.773 0.378-1.491 0.554-2.152 0.53-0.657-0.029-1.203-0.15-1.638-0.363-0.436-0.222-0.629-0.365-0.581-0.428v0c0.016 0.012 0.042 0.028 0.078 0.046 0.04 0.014 0.095 0.047 0.164 0.1v0c-1.426-1.083-1.519-2.442-0.278-4.076v0l6.282-8.27-1.828-1.388 1.94-0.981 1.07 0.813 4.244-5.588z" fill="black"></path><path d="M233.697 40.442l-0.055 0.837c-1.774-0.354-3.394-0.401-4.859-0.141-1.46 0.255-2.756 0.969-3.887 2.144v0c-0.635 0.66-1.135 1.458-1.5 2.396-0.36 0.933-0.475 1.89-0.342 2.87 0.132 0.971 0.588 1.832 1.367 2.583v0c0.631 0.607 1.333 1 2.107 1.18 0.774 0.179 1.534 0.15 2.281-0.086 0.752-0.241 1.417-0.663 1.997-1.265v0c0.663-0.688 1.132-1.591 1.409-2.706 0.272-1.121 0.312-2.256 0.119-3.405-0.192-1.15-0.614-2.094-1.266-2.833v0c0.576-0.011 1.227 0.022 1.952 0.098 0.72 0.071 1.44 0.157 2.16 0.256v0c0.687 1.31 0.867 2.722 0.541 4.236-0.321 1.509-1.04 2.844-2.157 4.004v0c-0.987 1.025-2.147 1.811-3.479 2.356-1.327 0.54-2.678 0.72-4.052 0.538-1.383-0.182-2.624-0.801-3.722-1.858v0c-0.881-0.848-1.484-1.846-1.808-2.992-0.319-1.142-0.334-2.293-0.044-3.452 0.299-1.159 0.887-2.193 1.763-3.103v0c1.534-1.594 3.338-2.523 5.413-2.79 2.079-0.262 4.1 0.116 6.062 1.133z" fill="black"></path><path d="M260.471 52.582l-20.316 15.396c-0.229 0.174-0.398 0.382-0.508 0.624-0.106 0.248-0.072 0.486 0.101 0.715v0c0.174 0.229 0.446 0.379 0.819 0.449 0.381 0.072 0.734 0.073 1.058 0.003v0l-0.04 0.76c-0.746 0.155-1.493 0.138-2.24-0.051-0.737-0.187-1.28-0.51-1.627-0.969v0c-0.565-0.746-0.766-1.448-0.604-2.108 0.162-0.66 0.769-1.375 1.82-2.146v0l-0.072-0.096c-2.748 0.523-4.663 0.071-5.745-1.356v0c-1.07-1.411-1.396-2.866-0.98-4.364 0.407-1.499 1.348-2.807 2.823-3.925v0c1.166-0.884 2.519-1.511 4.059-1.881 1.53-0.371 3.021-0.373 4.472-0.006 1.452 0.367 2.64 1.16 3.565 2.38v0c0.577 0.762 0.885 1.572 0.924 2.431v0l9.827-7.447zM245.503 56.945c-0.686-0.905-1.536-1.44-2.548-1.604-1.018-0.159-2.034-0.073-3.048 0.26-1.009 0.328-1.862 0.757-2.56 1.286v0c-0.554 0.42-1.089 0.98-1.606 1.682-0.52 0.696-0.852 1.442-0.995 2.238-0.144 0.805 0.04 1.546 0.552 2.223v0c0.936 1.236 2.104 1.676 3.503 1.32 1.4-0.365 2.739-1.032 4.018-2.001v0l3.34-2.531c0.082-0.49 0.074-0.987-0.024-1.491-0.099-0.495-0.309-0.956-0.632-1.382z" fill="black"></path><path d="M258.209 74.119c0.471 0.877 0.728 1.809 0.771 2.794 0.04 0.98-0.229 1.856-0.807 2.629v0l-2.089-1.37c0.257-0.51 0.417-1.103 0.477-1.781 0.067-0.681-0.054-1.309-0.364-1.886v0c-0.49-0.913-1.157-1.583-2-2.01-0.84-0.421-1.76-0.595-2.76-0.521-0.999 0.074-1.991 0.375-2.974 0.902v0c-1.419 0.762-2.444 1.622-3.073 2.583-0.624 0.957-0.656 1.956-0.097 2.999v0c0.79 1.472 1.925 2.167 3.406 2.085 1.481-0.082 2.919-0.497 4.314-1.246v0l1.21-0.65 2.268 1.832-7.074 3.797c-0.236 0.126-0.425 0.311-0.567 0.555-0.151 0.241-0.159 0.487-0.024 0.74v0c0.278 0.518 0.892 0.799 1.841 0.844v0l-0.215 0.638c-0.723 0.108-1.441 0.007-2.152-0.301-0.709-0.317-1.207-0.744-1.495-1.279v0c-0.414-0.771-0.433-1.493-0.058-2.165 0.378-0.681 1.041-1.275 1.989-1.784v0l-0.029-0.053c-1.188 0.061-2.304-0.117-3.347-0.535-1.053-0.421-1.805-1.052-2.257-1.895v0c-0.819-1.525-0.909-2.959-0.273-4.302 0.628-1.346 1.819-2.489 3.574-3.431v0c1.401-0.752 2.884-1.142 4.447-1.169 1.566-0.036 3.009 0.293 4.329 0.987 1.318 0.688 2.327 1.686 3.029 2.993z" fill="black"></path><path d="M268.464 97.739l-13.22 4.738c-1.799 0.645-3.614 0.891-5.443 0.737-1.823-0.156-3.42-0.659-4.79-1.509-1.363-0.853-2.285-1.949-2.765-3.29v0c-0.185-0.516-0.282-1.035-0.292-1.556-0.014-0.513 0.073-1.084 0.26-1.712v0l3.277 1.093c-0.258 0.547-0.415 1.139-0.471 1.777-0.049 0.635 0.012 1.192 0.184 1.67v0c0.212 0.591 0.757 1.003 1.635 1.235 0.882 0.223 1.996 0.25 3.34 0.08 1.345-0.17 2.804-0.536 4.377-1.1v0c3.561-1.276 5.854-2.088 6.879-2.434v0l1.718-0.615-0.061-0.17c-7.691 0.982-11.987 0.218-12.886-2.292v0c-0.198-0.554-0.236-1.005-0.113-1.355 0.132-0.345 0.466-0.671 1.002-0.976 0.539-0.3 1.393-0.659 2.563-1.079v0l8.106-2.905c0.308-0.11 0.539-0.278 0.692-0.504 0.158-0.234 0.196-0.464 0.115-0.691v0c-0.171-0.478-0.747-0.847-1.728-1.105v0l0.291-0.616c1.057 0.097 1.819 0.292 2.287 0.586 0.476 0.298 0.855 0.84 1.136 1.627v0c0.273 0.761 0.233 1.422-0.12 1.981-0.347 0.557-0.989 1.004-1.926 1.34v0l-7.851 2.814c-0.711 0.255-0.994 0.584-0.85 0.986v0c0.171 0.478 1.045 0.857 2.622 1.137 1.571 0.282 3.314 0.402 5.23 0.361 1.925-0.037 3.422-0.247 4.492-0.63v0z" fill="black"></path><path d="M31.228 167.778l1.897 2.325-5.619 1.877c1.764-0.117 3.339 0.146 4.723 0.79 1.385 0.644 2.351 1.787 2.9 3.428v0c0.387 1.16 0.284 2.17-0.309 3.031-0.593 0.86-1.476 1.486-2.649 1.878v0l-13.901 4.641c-0.539 0.18-0.936 0.436-1.191 0.768-0.253 0.338-0.313 0.707-0.181 1.106v0c0.11 0.33 0.322 0.625 0.635 0.888 0.313 0.262 0.644 0.43 0.992 0.503v0l-0.243 0.536c-0.661-0.061-1.295-0.3-1.9-0.719-0.598-0.42-1.02-0.998-1.265-1.733v0c-0.296-0.887-0.23-1.702 0.198-2.444 0.426-0.748 1.217-1.315 2.37-1.7v0l12.427-4.15c1.078-0.36 1.934-0.78 2.57-1.26 0.636-0.48 0.809-1.154 0.519-2.022v0c-0.368-1.103-1.219-1.837-2.553-2.202-1.336-0.371-2.797-0.486-4.384-0.343-1.581 0.14-2.903 0.388-3.968 0.744v0l-9.641 3.219-1.964-2.303z" fill="black"></path><path d="M35.122 192.698l-0.324 0.774c-1.564-0.91-3.081-1.48-4.55-1.709-1.464-0.233-2.921 0.024-4.372 0.768v0c-0.814 0.418-1.546 1.012-2.196 1.781-0.643 0.766-1.062 1.634-1.255 2.605-0.19 0.961-0.038 1.924 0.457 2.886v0c0.4 0.779 0.937 1.378 1.611 1.799 0.674 0.42 1.403 0.64 2.185 0.658 0.789 0.016 1.555-0.167 2.299-0.549v0c0.85-0.436 1.587-1.138 2.21-2.103 0.62-0.972 1.026-2.033 1.217-3.183 0.191-1.15 0.098-2.18-0.279-3.09v0c0.549 0.176 1.154 0.418 1.814 0.725 0.658 0.301 1.311 0.615 1.96 0.943v0c0.225 1.462-0.062 2.856-0.861 4.183-0.793 1.323-1.906 2.353-3.338 3.088v0c-1.266 0.65-2.618 1.017-4.055 1.101-1.431 0.081-2.767-0.187-4.007-0.804-1.25-0.62-2.223-1.608-2.919-2.964v0c-0.558-1.088-0.805-2.227-0.74-3.417 0.068-1.184 0.427-2.277 1.077-3.28 0.659-0.999 1.55-1.787 2.674-2.364v0c1.968-1.01 3.976-1.305 6.025-0.885 2.052 0.427 3.841 1.439 5.367 3.037z" fill="black"></path><path d="M48.345 212.427l-10.495 7.724c-0.248 0.182-0.404 0.393-0.469 0.631-0.065 0.239-0.014 0.471 0.152 0.697v0c0.254 0.344 0.883 0.529 1.888 0.553v0l-0.096 0.63c-0.996 0.202-1.821 0.175-2.475-0.082-0.658-0.263-0.987-0.394-0.987-0.394 0 0-0.156-0.213-0.47-0.638v0c-0.388-0.527-0.533-1.035-0.435-1.521 0.093-0.483 0.477-1.065 1.155-1.746 0.681-0.676 1.775-1.568 3.282-2.677v0c0.899-0.661 1.626-1.184 2.181-1.568v0l0.35-0.556-0.059-0.081c-2.331 1.06-4.648 1.853-6.951 2.377-2.312 0.523-3.986 0.08-5.024-1.331v0c-0.384-0.522-0.532-0.999-0.442-1.429 0.085-0.436 0.336-0.845 0.753-1.226 0.411-0.377 1.085-0.91 2.021-1.6v0l6.935-5.104c0.28-0.206 0.455-0.43 0.525-0.673 0.076-0.247 0.036-0.475-0.118-0.684v0c-0.289-0.393-0.944-0.595-1.965-0.608v0l0.174-0.576c0.818-0.196 1.525-0.205 2.119-0.028 0.604 0.178 1.072 0.414 1.405 0.708 0.331 0.304 0.473 0.473 0.425 0.509v0c-0.012-0.016-0.032-0.038-0.062-0.067-0.035-0.024-0.078-0.072-0.129-0.141v0c1.038 1.41 0.747 2.711-0.873 3.903v0l-7.089 5.217c-0.361 0.265-0.587 0.494-0.678 0.686-0.093 0.201-0.097 0.358-0.014 0.471v0c0.519 0.705 1.688 0.857 3.509 0.454 1.821-0.411 3.704-1.033 5.646-1.865 1.934-0.834 3.064-1.372 3.393-1.613v0z" fill="black"></path><path d="M53.872 224.648c-1.323 0.011-2.766 0.316-4.329 0.914-1.563 0.599-2.796 1.339-3.701 2.221v0c-0.785 0.765-1.278 1.576-1.477 2.433-0.196 0.862 0.075 1.672 0.811 2.428v0c0.597 0.613 1.328 1.043 2.195 1.29 0.866 0.248 1.747 0.323 2.641 0.226v0l0.093-0.566c-0.745-0.151-1.332-0.447-1.761-0.888v0c-0.667-0.684-0.931-1.435-0.793-2.25 0.143-0.82 0.557-1.564 1.242-2.231v0c1.111-1.082 2.439-1.821 3.984-2.216 1.546-0.396 3.21-0.613 4.992-0.651v0l-0.034-0.638c-1.639-0.399-2.869-1.02-3.69-1.863v0c-0.485-0.498-0.703-1.167-0.655-2.008 0.049-0.841 0.236-1.634 0.563-2.381v0l-3.717 0.164c-0.189 0.39-0.256 0.996-0.201 1.819v0l-4.485 1.515 0.417 1.175 4.515-1.628c0.137 0.342 0.268 0.611 0.394 0.806 0.125 0.186 0.323 0.418 0.593 0.695v0c0.699 0.718 1.499 1.218 2.398 1.499v0z" fill="black"></path><path d="M71.842 222.16l-5.369 4.785-1.008-0.375 3.123-5.664zM65.183 230.038l-8.093 9.631c-0.198 0.235-0.3 0.477-0.307 0.724-0.007 0.247 0.1 0.463 0.319 0.648v0c0.169 0.142 0.425 0.222 0.768 0.239 0.339 0.023 0.743-0.022 1.212-0.133v0l0.08 0.669c-0.921 0.369-1.751 0.479-2.49 0.33-0.743-0.144-1.327-0.395-1.752-0.752v0c-0.558-0.469-0.84-1.011-0.845-1.627-0.001-0.612 0.358-1.345 1.075-2.199v0l7.152-8.511z" fill="black"></path><path d="M74.594 235.164c0.568 0.388 0.915 0.775 1.041 1.16 0.124 0.376 0.04 0.776-0.25 1.201v0c-0.309 0.452-0.673 0.795-1.091 1.028-0.418 0.233-0.814 0.403-1.187 0.512-0.372 0.118-0.625 0.204-0.759 0.258v0c-0.031 0.472 0.075 1.128 0.32 1.967v0c0.189 0.695 0.316 1.284 0.383 1.767 0.058 0.484 0.008 1.049-0.15 1.694-0.157 0.645-0.489 1.337-0.994 2.077v0c-0.596 0.872-1.336 1.535-2.221 1.991-0.891 0.451-1.828 0.649-2.81 0.593-0.991-0.054-1.923-0.379-2.794-0.974v0c-0.535-0.366-1.044-0.883-1.526-1.552-0.486-0.663-0.737-1.309-0.754-1.935v0l3.221-1.09c0.05 0.803 0.17 1.54 0.359 2.212 0.194 0.675 0.551 1.19 1.07 1.544v0c0.723 0.494 1.505 0.676 2.346 0.546 0.841-0.13 1.492-0.531 1.951-1.204v0c0.366-0.535 0.506-1.22 0.421-2.055-0.08-0.831-0.278-1.885-0.596-3.163v0c-0.043-0.151-0.117-0.456-0.223-0.917-0.104-0.452-0.169-0.807-0.193-1.067v0l-3.533 1.387-0.441-1.079 3.922-1.423c0.213-0.809 0.538-1.534 0.976-2.175v0c0.494-0.723 1.065-1.215 1.712-1.476 0.642-0.265 1.242-0.207 1.8 0.173zM73.921 236.149c-0.221-0.151-0.398-0.187-0.532-0.109-0.144 0.08-0.295 0.236-0.453 0.468v0c-0.207 0.303-0.345 0.594-0.413 0.871-0.064 0.272-0.107 0.465-0.129 0.58v0c0.265 0.003 0.583-0.095 0.954-0.296 0.371-0.2 0.632-0.41 0.783-0.63v0c0.102-0.149 0.138-0.302 0.108-0.461-0.03-0.158-0.136-0.299-0.318-0.423z" fill="black"></path><path d="M90.206 230.779l-9.902 19.311 0.107 0.055c0.694-0.899 1.588-1.852 2.683-2.86 1.098-0.999 2.279-1.772 3.543-2.318 1.261-0.54 2.417-0.54 3.47 0v0c0.559 0.287 0.866 0.699 0.92 1.237 0.051 0.544-0.029 1.082-0.241 1.612-0.212 0.53-0.532 1.214-0.962 2.052v0l-3.869 7.546c-0.113 0.22-0.154 0.462-0.124 0.725 0.033 0.272 0.195 0.483 0.487 0.633v0c0.47 0.241 1.13 0.132 1.98-0.325v0l0.12 0.579c-0.561 0.464-1.224 0.762-1.991 0.895-0.766 0.133-1.429 0.056-1.988-0.231v0c-1.409-0.723-1.646-1.997-0.71-3.822v0l3.691-7.199c0.122-0.238 0.184-0.484 0.187-0.737 0-0.248-0.12-0.433-0.358-0.556v0c-0.922-0.473-2.087-0.162-3.497 0.933-1.404 1.098-2.731 2.419-3.981 3.964-1.25 1.544-2.032 2.623-2.346 3.235v0l-2.783-0.526 12.536-24.449z" fill="black"></path><path d="M104.692 240.245l-3.429 6.321-1.075-0.011 1.018-6.388zM101.098 249.913l-4.348 11.805c-0.106 0.288-0.121 0.55-0.043 0.785 0.077 0.235 0.251 0.402 0.52 0.501v0c0.207 0.076 0.475 0.064 0.803-0.035 0.326-0.093 0.691-0.272 1.095-0.536v0l0.302 0.602c-0.742 0.66-1.485 1.045-2.231 1.155-0.748 0.116-1.382 0.078-1.902-0.114v0c-0.684-0.252-1.133-0.666-1.347-1.244-0.208-0.575-0.12-1.386 0.266-2.433v0l3.842-10.432z" fill="black"></path><path d="M118.345 253.845c0.795 0.179 1.245 0.588 1.347 1.228 0.109 0.641 0.048 1.477-0.183 2.507v0l-0.207 0.919-1.894 8.43c-0.05 0.222-0.032 0.462 0.054 0.721 0.086 0.259 0.259 0.418 0.519 0.477v0c0.339 0.076 0.651 0.03 0.936-0.139 0.29-0.161 0.59-0.385 0.9-0.671v0l0.349 0.551c-0.442 0.565-1.012 1.016-1.711 1.351-0.697 0.33-1.317 0.434-1.858 0.312v0c-0.795-0.179-1.356-0.565-1.681-1.158-0.326-0.594-0.375-1.396-0.148-2.407v0l1.774-7.892c0.067-0.3 0.094-0.558 0.081-0.773-0.015-0.209-0.139-0.34-0.374-0.392v0c-0.815-0.183-1.826 0.415-3.034 1.794-1.206 1.373-2.329 2.959-3.371 4.76-1.042 1.8-1.631 3.007-1.768 3.619v0l-2.768 0.2 2.866-12.753c0.062-0.274 0.043-0.542-0.056-0.804-0.097-0.268-0.283-0.433-0.557-0.494v0c-0.476-0.107-1.09 0.204-1.842 0.931v0l-0.335-0.568c0.415-0.66 0.978-1.167 1.688-1.521 0.702-0.349 1.349-0.457 1.942-0.324v0c0.835 0.188 1.413 0.526 1.734 1.016 0.315 0.489 0.395 1.078 0.24 1.77v0l-1.761 7.834 0.118 0.026c0.938-1.645 1.802-3.068 2.592-4.267 0.79-1.199 1.762-2.279 2.916-3.238 1.154-0.96 2.318-1.308 3.492-1.045z" fill="black"></path><path d="M133.858 255.653c0.973 0.075 1.885 0.414 2.737 1.016 0.851 0.609 1.474 1.388 1.87 2.337v0l-2.281 1.02c-0.251-0.737-0.644-1.33-1.179-1.78-0.535-0.45-1.149-0.702-1.842-0.756v0c-1.013-0.078-1.926 0.2-2.739 0.834-0.813 0.634-1.469 1.441-1.966 2.421-0.491 0.981-0.772 1.928-0.844 2.84v0c-0.11 1.419 0.093 2.702 0.608 3.848 0.508 1.139 1.422 1.759 2.741 1.861v0c1.506 0.117 2.594-0.476 3.264-1.779 0.671-1.309 1.067-2.743 1.188-4.301v0l0.106-1.369 2.826-0.918-0.721 9.315c-0.118 1.519-0.592 3.064-1.424 4.635-0.839 1.571-1.923 2.844-3.252 3.82-1.329 0.976-2.776 1.404-4.342 1.283v0c-1.113-0.086-1.966-0.537-2.559-1.354v0l2.758-1.999c0.112 0.377 0.328 0.692 0.651 0.945 0.316 0.246 0.727 0.388 1.234 0.428v0c1.519 0.118 2.552-0.369 3.099-1.46 0.54-1.091 0.876-2.489 1.008-4.195v0l0.102-2.495c0.058-0.753 0.179-1.357 0.362-1.812v0l-0.22-0.017c-0.837 1.122-1.632 1.988-2.383 2.601-0.758 0.618-1.624 0.89-2.597 0.814v0c-1.746-0.135-3.04-0.815-3.883-2.04-0.844-1.218-1.198-2.71-1.062-4.475v0c0.133-1.719 0.608-3.308 1.425-4.766 0.817-1.458 1.877-2.603 3.181-3.434 1.297-0.825 2.675-1.18 4.134-1.068z" fill="black"></path><path d="M164.405 253.416l1.996 13.901c0.272 1.892 0.149 3.719-0.367 5.481-0.517 1.755-1.33 3.219-2.437 4.391-1.109 1.165-2.367 1.849-3.777 2.051v0c-0.542 0.078-1.07 0.069-1.583-0.025-0.506-0.089-1.047-0.288-1.625-0.597v0l1.727-2.993c0.484 0.363 1.033 0.635 1.646 0.817 0.613 0.175 1.17 0.227 1.673 0.154v0c0.622-0.089 1.134-0.541 1.537-1.355 0.395-0.82 0.644-1.905 0.748-3.256 0.103-1.352 0.036-2.854-0.202-4.508v0c-0.538-3.744-0.874-6.153-1.008-7.228v0l-0.26-1.806-0.178 0.026c-0.577 7.732-2.185 11.788-4.825 12.167v0c-0.582 0.084-1.032 0.03-1.349-0.161-0.312-0.198-0.564-0.591-0.757-1.177-0.186-0.588-0.367-1.497-0.544-2.727v0l-1.224-8.523c-0.047-0.324-0.165-0.584-0.355-0.78-0.198-0.201-0.416-0.285-0.654-0.25v0c-0.503 0.072-0.979 0.563-1.429 1.471v0l-0.545-0.408c0.306-1.016 0.65-1.724 1.032-2.123 0.387-0.407 0.994-0.669 1.821-0.788v0c0.8-0.115 1.439 0.057 1.917 0.515 0.477 0.451 0.786 1.17 0.928 2.155v0l1.186 8.255c0.107 0.747 0.373 1.091 0.796 1.03v0c0.503-0.072 1.049-0.853 1.638-2.342 0.59-1.482 1.057-3.166 1.401-5.052 0.349-1.893 0.443-3.402 0.281-4.526v0z" fill="black"></path><path d="M175.773 250.352l0.704 0.457c-1.176 1.375-2.008 2.765-2.497 4.17-0.491 1.399-0.501 2.878-0.028 4.439v0c0.265 0.876 0.718 1.703 1.358 2.479 0.638 0.77 1.417 1.337 2.337 1.701 0.912 0.359 1.886 0.382 2.922 0.069v0c0.838-0.254 1.524-0.674 2.058-1.262 0.534-0.588 0.881-1.265 1.04-2.033 0.157-0.774 0.114-1.56-0.128-2.359v0c-0.277-0.915-0.835-1.765-1.674-2.552-0.845-0.785-1.816-1.374-2.912-1.768-1.097-0.394-2.127-0.487-3.091-0.279v0c0.272-0.508 0.618-1.06 1.039-1.655 0.414-0.593 0.84-1.18 1.279-1.759v0c1.479 0.041 2.799 0.573 3.961 1.597 1.16 1.017 1.973 2.297 2.44 3.838v0c0.412 1.362 0.531 2.758 0.356 4.186-0.177 1.422-0.68 2.688-1.51 3.799-0.834 1.118-1.981 1.898-3.439 2.339v0c-1.17 0.354-2.335 0.393-3.495 0.116-1.153-0.279-2.164-0.829-3.033-1.648-0.865-0.827-1.48-1.845-1.847-3.054v0c-0.641-2.117-0.571-4.146 0.21-6.086 0.787-1.942 2.104-3.521 3.95-4.735z" fill="black"></path><path d="M197.548 240.875l5.721 11.708c0.135 0.276 0.314 0.468 0.538 0.574 0.223 0.107 0.461 0.098 0.713-0.025v0c0.384-0.188 0.678-0.774 0.881-1.758v0l0.603 0.207c0.021 1.016-0.154 1.823-0.524 2.421-0.376 0.6-0.564 0.9-0.564 0.9 0 0-0.237 0.116-0.711 0.348v0c-0.588 0.288-1.113 0.34-1.575 0.156-0.459-0.178-0.962-0.66-1.511-1.449-0.543-0.791-1.225-2.027-2.047-3.708v0c-0.49-1.003-0.874-1.812-1.152-2.427v0l-0.485-0.443-0.09 0.044c0.626 2.483 0.991 4.905 1.095 7.263 0.101 2.368-0.635 3.936-2.208 4.705v0c-0.582 0.285-1.078 0.344-1.486 0.18-0.414-0.162-0.771-0.482-1.071-0.961-0.298-0.472-0.702-1.23-1.212-2.275v0l-3.781-7.736c-0.153-0.312-0.342-0.525-0.568-0.637-0.229-0.119-0.461-0.121-0.695-0.006v0c-0.438 0.214-0.755 0.823-0.949 1.825v0l-0.535-0.274c-0.046-0.84 0.071-1.537 0.35-2.091 0.283-0.562 0.599-0.981 0.949-1.255 0.358-0.272 0.55-0.381 0.576-0.327v0c-0.018 0.009-0.044 0.025-0.076 0.049-0.03 0.03-0.084 0.063-0.163 0.101v0c1.573-0.769 2.801-0.249 3.685 1.558v0l3.864 7.908c0.197 0.402 0.381 0.665 0.553 0.789 0.181 0.127 0.335 0.16 0.461 0.098v0c0.787-0.384 1.145-1.508 1.075-3.37-0.079-1.866-0.354-3.829-0.825-5.889-0.474-2.052-0.801-3.26-0.98-3.627v0z" fill="black"></path><path d="M208.051 224.796l4.911 6.465 3.377-2.564 0.456 2.108-2.65 2.013 6.499 8.557c0.186 0.245 0.409 0.39 0.671 0.435 0.266 0.041 0.519-0.029 0.758-0.211v0c0.341-0.259 0.571-0.933 0.691-2.023v0l0.623 0.106c0.156 0.846 0.134 1.585-0.067 2.216-0.205 0.625-0.468 1.119-0.789 1.48-0.331 0.36-0.52 0.508-0.569 0.445v0c0.016-0.012 0.038-0.033 0.066-0.063 0.024-0.035 0.07-0.079 0.14-0.131v0c-1.426 1.083-2.76 0.808-4.001-0.825v0l-6.281-8.27-1.828 1.388-0.424-2.132 1.069-0.813-4.244-5.587z" fill="black"></path><path d="M223.324 221.687l0.835 0.086c-0.421 1.76-0.53 3.376-0.326 4.85 0.199 1.469 0.864 2.791 1.995 3.966v0c0.635 0.66 1.414 1.19 2.337 1.59 0.919 0.396 1.871 0.546 2.856 0.451 0.975-0.095 1.853-0.518 2.633-1.269v0c0.631-0.607 1.05-1.294 1.258-2.06 0.208-0.766 0.209-1.527 0.001-2.283-0.212-0.76-0.608-1.441-1.187-2.043v0c-0.663-0.688-1.546-1.192-2.651-1.511-1.109-0.314-2.242-0.397-3.399-0.248-1.156 0.148-2.116 0.534-2.879 1.157v0c0.011-0.576 0.068-1.225 0.172-1.946 0.099-0.717 0.212-1.433 0.339-2.149v0c1.335-0.636 2.753-0.763 4.253-0.38 1.496 0.378 2.802 1.147 3.919 2.308v0c0.987 1.025 1.728 2.214 2.223 3.565 0.49 1.347 0.617 2.703 0.383 4.07-0.234 1.376-0.9 2.592-1.997 3.648v0c-0.881 0.848-1.901 1.412-3.06 1.693-1.154 0.276-2.304 0.247-3.451-0.087-1.147-0.343-2.158-0.97-3.034-1.879v0c-1.534-1.594-2.395-3.432-2.582-5.515-0.182-2.088 0.271-4.092 1.362-6.014z" fill="black"></path><path d="M228.355 195.983l20.316 15.396c0.229 0.174 0.475 0.28 0.738 0.32 0.267 0.035 0.487-0.062 0.661-0.291v0c0.174-0.229 0.244-0.532 0.211-0.909-0.034-0.386-0.129-0.726-0.283-1.02v0l0.742-0.167c0.351 0.677 0.536 1.4 0.557 2.17 0.019 0.761-0.145 1.37-0.492 1.828v0c-0.565 0.746-1.187 1.129-1.866 1.152-0.679 0.022-1.532-0.368-2.559-1.172v0l-0.072 0.096c1.247 2.504 1.329 4.47 0.247 5.897v0c-1.07 1.411-2.382 2.119-3.936 2.124-1.553 0.014-3.067-0.539-4.543-1.657v0c-1.166-0.884-2.136-2.017-2.908-3.398-0.771-1.372-1.176-2.807-1.216-4.305-0.039-1.497 0.403-2.856 1.328-4.075v0c0.577-0.762 1.274-1.277 2.091-1.547v0l-9.827-7.447zM236.603 209.214c-0.686 0.905-0.971 1.868-0.855 2.886 0.122 1.023 0.48 1.978 1.075 2.865 0.589 0.882 1.232 1.588 1.93 2.116v0c0.554 0.42 1.238 0.783 2.053 1.091 0.811 0.313 1.619 0.43 2.425 0.353 0.814-0.079 1.478-0.456 1.99-1.133v0c0.936-1.236 1.044-2.479 0.323-3.729-0.73-1.249-1.734-2.358-3.012-3.327v0l-3.34-2.531c-0.493 0.054-0.97 0.196-1.429 0.426-0.45 0.229-0.837 0.557-1.16 0.983z" fill="black"></path><path d="M245.508 191.967c0.471-0.877 1.105-1.606 1.902-2.188 0.794-0.575 1.673-0.835 2.637-0.78v0l0.013 2.499c-0.567 0.067-1.15 0.263-1.748 0.586-0.604 0.32-1.061 0.769-1.371 1.346v0c-0.49 0.913-0.68 1.839-0.569 2.777 0.114 0.933 0.477 1.796 1.091 2.588 0.614 0.792 1.413 1.452 2.396 1.98v0c1.419 0.762 2.703 1.14 3.851 1.134 1.142-0.009 1.993-0.534 2.552-1.576v0c0.79-1.472 0.742-2.802-0.144-3.991-0.886-1.189-2.027-2.158-3.423-2.907v0l-1.21-0.649 0.272-2.903 7.075 3.797c0.236 0.126 0.494 0.182 0.775 0.166 0.284-0.007 0.494-0.137 0.631-0.39v0c0.278-0.518 0.173-1.185-0.315-2v0l0.651-0.174c0.49 0.543 0.803 1.197 0.939 1.96 0.127 0.766 0.047 1.417-0.24 1.953v0c-0.414 0.771-1.005 1.186-1.772 1.245-0.776 0.061-1.638-0.163-2.586-0.672v0l-0.029 0.053c0.708 0.956 1.176 1.985 1.404 3.086 0.231 1.11 0.12 2.086-0.331 2.928v0c-0.819 1.525-1.963 2.393-3.434 2.605-1.468 0.221-3.08-0.14-4.835-1.082v0c-1.401-0.752-2.545-1.772-3.432-3.059-0.896-1.285-1.419-2.669-1.571-4.154-0.155-1.478 0.119-2.871 0.821-4.178z" fill="black"></path><path d="M254.103 170.016l13.22 4.739c1.799 0.645 3.357 1.608 4.672 2.888 1.309 1.279 2.223 2.681 2.74 4.209 0.511 1.525 0.527 2.957 0.047 4.297v0c-0.185 0.516-0.439 0.978-0.764 1.388-0.316 0.405-0.745 0.791-1.288 1.157v0l-1.837-2.927c0.547-0.258 1.044-0.616 1.493-1.073 0.442-0.459 0.748-0.928 0.919-1.406v0c0.212-0.591 0.052-1.255-0.479-1.993-0.539-0.733-1.382-1.461-2.528-2.184-1.146-0.723-2.506-1.367-4.079-1.93v0c-3.561-1.276-5.847-2.106-6.859-2.491v0l-1.718-0.615-0.061 0.17c6.564 4.127 9.396 7.446 8.496 9.956v0c-0.198 0.554-0.456 0.926-0.773 1.117-0.321 0.183-0.786 0.222-1.394 0.118-0.606-0.111-1.494-0.376-2.665-0.795v0l-8.106-2.905c-0.308-0.11-0.593-0.127-0.855-0.051-0.27 0.081-0.446 0.234-0.527 0.46v0c-0.171 0.478 0.039 1.129 0.632 1.952v0l-0.615 0.29c-0.755-0.746-1.219-1.381-1.394-1.905-0.178-0.532-0.127-1.192 0.155-1.978v0c0.273-0.761 0.723-1.246 1.352-1.454 0.622-0.21 1.402-0.147 2.339 0.189v0l7.851 2.814c0.711 0.255 1.138 0.181 1.282-0.222v0c0.171-0.478-0.263-1.326-1.303-2.543-1.034-1.215-2.304-2.416-3.809-3.602-1.51-1.194-2.8-1.983-3.87-2.366v0z" fill="black"></path><path d="M2.921 136.451c0-5.95 4.824-10.774 10.774-10.774 5.95 0 10.774 4.824 10.774 10.774 0 5.95-4.824 10.774-10.774 10.774-5.95 0-10.774-4.824-10.774-10.774z" fill="black"></path><path d="M255.531 136.451c0-5.95 4.824-10.774 10.774-10.774 5.95 0 10.774 4.824 10.774 10.774 0 5.95-4.824 10.774-10.774 10.774-5.95 0-10.774-4.824-10.774-10.774z" fill="black"></path></g><g id="SvgjsG1297"></g></svg></g></svg></g></svg></g><g></g></svg></g><defs><mask></mask></defs></svg><rect width="280" height="280" fill="black" stroke="none" visibility="hidden"></rect></g></mask><linearGradient x1="0" x2="1" y1="0.578" y2="0.595" id="6aa52b2d-3f62-4c6b-98c2-aa8b4f83a512"><stop stop-color="#dede50" offset="0"></stop><stop stop-color="#559c49" offset="1"></stop></linearGradient><rect width="280" height="280.0000027046048" fill="url(#6aa52b2d-3f62-4c6b-98c2-aa8b4f83a512)" mask="url(#0b54f2ec-0a63-44ab-afe5-d25deef228f5)" data-fill-palette-color="accent"></rect></svg><rect width="280" height="280" fill="none" stroke="none" visibility="hidden"></rect></g></svg></g></svg>